{"glyphs":{"0":{"ha":833,"x_min":0,"x_max":0,"o":"m 472 140 l 361 140 b 250 251 300 140 250 190 l 250 624 l 535 160 b 472 140 517 147 496 140 z m 111 251 b 361 0 111 114 224 0 l 472 0 b 722 251 611 0 722 114 l 722 722 b 472 972 722 861 611 972 l 361 972 b 111 722 224 972 111 861 z m 297 814 b 361 833 315 826 338 833 l 472 833 b 583 722 535 833 583 785 l 583 349 z "},"1":{"ha":833,"x_min":0,"x_max":0,"o":"m 722 139 l 486 139 l 486 972 l 347 972 l 111 833 l 111 672 l 347 811 l 347 139 l 111 139 l 111 0 l 722 0 z "},"2":{"ha":833,"x_min":0,"x_max":0,"o":"m 722 139 l 250 139 l 250 239 l 722 504 l 722 722 b 472 972 722 861 611 972 l 361 972 b 111 722 224 972 111 861 l 111 674 l 250 674 l 250 722 b 361 833 250 783 300 833 l 472 833 b 583 722 535 833 583 785 l 583 586 l 111 321 l 111 0 l 722 0 z "},"3":{"ha":833,"x_min":0,"x_max":0,"o":"m 722 667 l 722 722 b 472 972 722 861 611 972 l 361 972 b 111 722 224 972 111 861 l 111 674 l 250 674 l 250 722 b 361 833 250 783 300 833 l 472 833 b 583 722 535 833 583 785 l 583 667 b 472 556 583 604 535 556 l 375 556 l 375 417 l 472 417 b 583 306 535 417 583 368 l 583 250 b 472 139 583 188 535 139 l 361 139 b 250 250 300 139 250 189 l 250 299 l 111 299 l 111 250 b 361 0 111 111 224 0 l 472 0 b 722 250 611 0 722 111 l 722 306 b 646 486 722 376 693 440 b 722 667 693 532 722 596 z "},"4":{"ha":833,"x_min":0,"x_max":0,"o":"m 444 889 l 444 542 l 250 542 l 250 972 l 111 972 l 111 403 l 444 403 l 444 0 l 583 0 l 583 403 l 722 403 l 722 542 l 583 542 l 583 889 z "},"5":{"ha":833,"x_min":0,"x_max":0,"o":"m 111 413 l 250 413 l 408 519 l 472 519 b 583 408 533 519 583 469 l 583 250 b 472 139 583 188 535 139 l 361 139 b 250 250 300 139 250 189 l 250 264 l 111 264 l 111 250 b 361 0 111 111 224 0 l 472 0 b 722 250 611 0 722 111 l 722 408 b 472 658 722 547 610 658 l 365 658 l 250 581 l 250 833 l 639 833 l 639 972 l 111 972 z "},"6":{"ha":833,"x_min":0,"x_max":0,"o":"m 250 250 l 250 371 l 408 478 l 472 478 b 583 367 533 478 583 428 l 583 250 b 472 139 583 188 535 139 l 361 139 b 250 250 300 139 250 189 z m 111 250 b 361 0 111 111 224 0 l 472 0 b 722 250 611 0 722 111 l 722 367 b 472 617 722 506 610 617 l 365 617 l 250 539 l 250 722 b 361 833 250 785 299 833 l 472 833 b 583 722 535 833 583 785 l 583 681 l 722 681 l 722 722 b 472 972 722 861 611 972 l 361 972 b 111 722 222 972 111 861 z "},"7":{"ha":833,"x_min":0,"x_max":0,"o":"m 306 0 l 306 215 l 722 646 l 722 972 l 111 972 l 111 681 l 250 681 l 250 833 l 583 833 l 583 701 l 167 271 l 167 0 z "},"8":{"ha":833,"x_min":0,"x_max":0,"o":"m 472 139 l 361 139 b 250 251 300 138 250 189 l 250 319 b 361 431 250 381 299 431 l 472 431 b 583 319 535 431 583 382 l 583 251 b 472 139 583 189 533 139 z m 111 251 b 361 0 111 114 224 0 l 472 0 b 722 251 611 0 722 114 l 722 319 b 638 507 722 394 690 461 b 708 682 682 553 708 614 l 708 722 b 458 972 708 861 597 972 l 375 972 b 125 722 238 972 125 861 l 125 682 b 196 507 125 614 153 553 b 111 319 144 461 111 394 z m 264 682 l 264 722 b 375 833 264 783 313 833 l 458 833 b 569 722 521 833 569 785 l 569 682 b 458 569 569 619 519 569 l 371 569 b 264 682 311 571 264 621 z "},"9":{"ha":833,"x_min":0,"x_max":0,"o":"m 583 722 l 583 601 l 425 494 l 361 494 b 250 606 300 494 250 544 l 250 722 b 361 833 250 785 299 833 l 472 833 b 583 722 533 833 583 783 z m 111 250 b 361 0 111 111 222 0 l 472 0 b 722 250 611 0 722 111 l 722 722 b 472 972 722 861 610 972 l 361 972 b 111 722 222 972 111 861 l 111 606 b 361 356 111 467 224 356 l 468 356 l 583 433 l 583 250 b 472 139 583 188 535 139 l 361 139 b 250 250 299 139 250 188 l 250 292 l 111 292 z "}," ":{"ha":833,"x_min":0,"x_max":0,"o":""}," ":{"ha":833,"x_min":0,"x_max":0,"o":""},"A":{"ha":833,"x_min":0,"x_max":0,"o":"m 250 0 l 250 225 l 583 225 l 583 0 l 722 0 l 722 319 l 486 972 l 347 972 l 111 319 l 111 0 z m 275 364 l 415 753 l 418 753 l 558 364 z "},"Á":{"ha":833,"x_min":0,"x_max":0,"o":"m 250 0 l 250 225 l 583 225 l 583 0 l 722 0 l 722 319 l 486 972 l 347 972 l 111 319 l 111 0 z m 275 364 l 415 753 l 418 753 l 558 364 z m 350 1097 l 511 1097 l 733 1308 l 544 1308 z "},"Ă":{"ha":833,"x_min":0,"x_max":0,"o":"m 250 0 l 250 225 l 583 225 l 583 0 l 722 0 l 722 319 l 486 972 l 347 972 l 111 319 l 111 0 z m 203 1311 b 417 1097 203 1193 299 1097 b 629 1311 533 1097 629 1193 l 629 1313 l 490 1313 l 490 1311 b 417 1236 490 1269 457 1236 b 342 1311 375 1236 342 1269 l 342 1313 l 203 1313 z m 275 364 l 415 753 l 418 753 l 558 364 z "},"Â":{"ha":833,"x_min":0,"x_max":0,"o":"m 250 0 l 250 225 l 583 225 l 583 0 l 722 0 l 722 319 l 486 972 l 347 972 l 111 319 l 111 0 z m 163 1097 l 324 1097 l 417 1193 l 510 1097 l 671 1097 l 490 1308 l 343 1308 z m 275 364 l 415 753 l 418 753 l 558 364 z "},"Ä":{"ha":833,"x_min":0,"x_max":0,"o":"m 250 0 l 250 225 l 583 225 l 583 0 l 722 0 l 722 319 l 486 972 l 347 972 l 111 319 l 111 0 z m 215 1097 l 368 1097 l 368 1236 l 215 1236 z m 275 364 l 415 753 l 418 753 l 558 364 z m 465 1097 l 618 1097 l 618 1236 l 465 1236 z "},"À":{"ha":833,"x_min":0,"x_max":0,"o":"m 250 0 l 250 225 l 583 225 l 583 0 l 722 0 l 722 319 l 486 972 l 347 972 l 111 319 l 111 0 z m 72 1308 l 294 1097 l 456 1097 l 261 1308 z m 275 364 l 415 753 l 418 753 l 558 364 z "},"Ā":{"ha":833,"x_min":0,"x_max":0,"o":"m 250 0 l 250 225 l 583 225 l 583 0 l 722 0 l 722 319 l 486 972 l 347 972 l 111 319 l 111 0 z m 167 1097 l 667 1097 l 667 1236 l 167 1236 z m 275 364 l 415 753 l 418 753 l 558 364 z "},"Ą":{"ha":833,"x_min":0,"x_max":0,"o":"m 250 0 l 250 225 l 583 225 l 583 0 b 650 -317 429 -107 472 -317 l 739 -317 l 739 -178 b 722 0 676 -178 568 -157 l 722 319 l 486 972 l 347 972 l 111 319 l 111 0 z m 275 364 l 415 753 l 418 753 l 558 364 z "},"Å":{"ha":833,"x_min":0,"x_max":0,"o":"m 250 0 l 250 225 l 583 225 l 583 0 l 722 0 l 722 319 l 486 972 l 347 972 l 111 319 l 111 0 z m 240 1272 b 417 1097 240 1175 318 1097 b 592 1272 513 1097 592 1176 b 417 1447 592 1369 513 1447 b 240 1272 318 1447 240 1369 z m 275 364 l 415 753 l 418 753 l 558 364 z m 379 1272 b 417 1308 379 1293 394 1308 b 453 1272 436 1308 453 1293 b 417 1236 453 1253 436 1236 b 379 1272 394 1236 379 1253 z "},"Ã":{"ha":833,"x_min":0,"x_max":0,"o":"m 250 0 l 250 225 l 583 225 l 583 0 l 722 0 l 722 319 l 486 972 l 347 972 l 111 319 l 111 0 z m 169 1124 l 300 1079 b 357 1125 313 1113 322 1124 l 508 1061 b 725 1201 622 1057 690 1101 l 594 1246 b 538 1200 582 1213 572 1201 l 386 1264 b 169 1124 272 1268 204 1224 z m 275 364 l 415 753 l 418 753 l 558 364 z "},"Æ":{"ha":833,"x_min":0,"x_max":0,"o":"m 792 972 l 278 972 l 42 319 l 42 0 l 181 0 l 181 225 l 401 225 l 401 0 l 792 0 l 792 139 l 540 139 l 540 440 l 764 440 l 764 579 l 540 579 l 540 833 l 792 833 z m 206 364 l 346 753 l 401 753 l 401 364 z "},"B":{"ha":833,"x_min":0,"x_max":0,"o":"m 694 667 l 694 722 b 444 972 694 861 583 972 l 111 972 l 111 0 l 472 0 b 722 250 611 0 722 111 l 722 306 b 631 500 722 385 686 454 b 694 667 671 543 694 603 z m 250 139 l 250 417 l 472 417 b 583 306 535 417 583 368 l 583 250 b 472 139 583 188 535 139 z m 250 556 l 250 833 l 444 833 b 556 722 507 833 556 785 l 556 667 b 444 556 556 604 507 556 z "},"C":{"ha":833,"x_min":0,"x_max":0,"o":"m 583 722 l 583 646 l 722 646 l 722 722 b 472 972 722 861 611 972 l 361 972 b 111 722 224 972 111 861 l 111 251 b 361 0 111 114 224 0 l 472 0 b 722 251 611 0 722 114 l 722 328 l 583 328 l 583 251 b 472 140 583 190 533 140 l 361 140 b 250 251 300 140 250 190 l 250 722 b 361 833 250 783 299 833 l 472 833 b 583 722 535 833 583 785 z "},"Ć":{"ha":833,"x_min":0,"x_max":0,"o":"m 583 722 l 583 646 l 722 646 l 722 722 b 472 972 722 861 611 972 l 361 972 b 111 722 224 972 111 861 l 111 251 b 361 0 111 114 224 0 l 472 0 b 722 251 611 0 722 114 l 722 328 l 583 328 l 583 251 b 472 140 583 190 533 140 l 361 140 b 250 251 300 140 250 190 l 250 722 b 361 833 250 783 299 833 l 472 833 b 583 722 535 833 583 785 z m 350 1097 l 511 1097 l 733 1308 l 544 1308 z "},"Č":{"ha":833,"x_min":0,"x_max":0,"o":"m 583 722 l 583 646 l 722 646 l 722 722 b 472 972 722 861 611 972 l 361 972 b 111 722 224 972 111 861 l 111 251 b 361 0 111 114 224 0 l 472 0 b 722 251 611 0 722 114 l 722 328 l 583 328 l 583 251 b 472 140 583 190 533 140 l 361 140 b 250 251 300 140 250 190 l 250 722 b 361 833 250 783 299 833 l 472 833 b 583 722 535 833 583 785 z m 163 1308 l 343 1097 l 490 1097 l 671 1308 l 510 1308 l 417 1213 l 324 1308 z "},"Ç":{"ha":833,"x_min":0,"x_max":0,"o":"m 583 722 l 583 646 l 722 646 l 722 722 b 472 972 722 861 611 972 l 361 972 b 111 722 224 972 111 861 l 111 251 b 350 0 111 118 218 6 l 331 -60 l 390 -172 l 496 -172 b 532 -212 515 -172 532 -190 b 496 -250 532 -232 514 -250 l 338 -250 l 338 -389 l 496 -389 b 671 -212 592 -389 671 -308 b 496 -33 671 -114 592 -33 l 483 -33 l 489 0 b 722 251 619 10 722 119 l 722 328 l 583 328 l 583 251 b 472 140 583 190 533 140 l 361 140 b 250 251 300 140 250 190 l 250 722 b 361 833 250 783 299 833 l 472 833 b 583 722 535 833 583 785 z "},"Ċ":{"ha":833,"x_min":0,"x_max":0,"o":"m 583 722 l 583 646 l 722 646 l 722 722 b 472 972 722 861 611 972 l 361 972 b 111 722 224 972 111 861 l 111 251 b 361 0 111 114 224 0 l 472 0 b 722 251 611 0 722 114 l 722 328 l 583 328 l 583 251 b 472 140 583 190 533 140 l 361 140 b 250 251 300 140 250 190 l 250 722 b 361 833 250 783 299 833 l 472 833 b 583 722 535 833 583 785 z m 340 1097 l 493 1097 l 493 1236 l 340 1236 z "},"D":{"ha":833,"x_min":0,"x_max":0,"o":"m 472 972 l 111 972 l 111 0 l 472 0 b 722 251 610 0 722 114 l 722 722 b 472 972 722 861 610 972 z m 250 140 l 250 833 l 472 833 b 583 722 535 833 583 783 l 583 251 b 472 140 583 190 533 140 z "},"Ð":{"ha":833,"x_min":0,"x_max":0,"o":"m 28 614 l 28 475 l 111 475 l 111 0 l 472 0 b 722 251 610 0 722 114 l 722 722 b 472 972 722 861 610 972 l 111 972 l 111 614 z m 250 140 l 250 475 l 431 475 l 431 614 l 250 614 l 250 833 l 472 833 b 583 722 535 833 583 783 l 583 251 b 472 140 583 190 533 140 z "},"Ď":{"ha":833,"x_min":0,"x_max":0,"o":"m 472 972 l 111 972 l 111 0 l 472 0 b 722 251 610 0 722 114 l 722 722 b 472 972 722 861 610 972 z m 135 1308 l 315 1097 l 463 1097 l 643 1308 l 482 1308 l 389 1213 l 296 1308 z m 250 140 l 250 833 l 472 833 b 583 722 535 833 583 783 l 583 251 b 472 140 583 190 533 140 z "},"Đ":{"ha":833,"x_min":0,"x_max":0,"o":"m 28 614 l 28 475 l 111 475 l 111 0 l 472 0 b 722 251 610 0 722 114 l 722 722 b 472 972 722 861 610 972 l 111 972 l 111 614 z m 250 140 l 250 475 l 431 475 l 431 614 l 250 614 l 250 833 l 472 833 b 583 722 535 833 583 783 l 583 251 b 472 140 583 190 533 140 z "},"E":{"ha":833,"x_min":0,"x_max":0,"o":"m 722 972 l 111 972 l 111 0 l 722 0 l 722 139 l 250 139 l 250 440 l 667 440 l 667 579 l 250 579 l 250 833 l 722 833 z "},"É":{"ha":833,"x_min":0,"x_max":0,"o":"m 722 972 l 111 972 l 111 0 l 722 0 l 722 139 l 250 139 l 250 440 l 667 440 l 667 579 l 250 579 l 250 833 l 722 833 z m 350 1097 l 511 1097 l 733 1308 l 544 1308 z "},"Ě":{"ha":833,"x_min":0,"x_max":0,"o":"m 722 972 l 111 972 l 111 0 l 722 0 l 722 139 l 250 139 l 250 440 l 667 440 l 667 579 l 250 579 l 250 833 l 722 833 z m 163 1308 l 343 1097 l 490 1097 l 671 1308 l 510 1308 l 417 1213 l 324 1308 z "},"Ê":{"ha":833,"x_min":0,"x_max":0,"o":"m 722 972 l 111 972 l 111 0 l 722 0 l 722 139 l 250 139 l 250 440 l 667 440 l 667 579 l 250 579 l 250 833 l 722 833 z m 163 1097 l 324 1097 l 417 1193 l 510 1097 l 671 1097 l 490 1308 l 343 1308 z "},"Ë":{"ha":833,"x_min":0,"x_max":0,"o":"m 722 972 l 111 972 l 111 0 l 722 0 l 722 139 l 250 139 l 250 440 l 667 440 l 667 579 l 250 579 l 250 833 l 722 833 z m 215 1097 l 368 1097 l 368 1236 l 215 1236 z m 465 1097 l 618 1097 l 618 1236 l 465 1236 z "},"Ė":{"ha":833,"x_min":0,"x_max":0,"o":"m 722 972 l 111 972 l 111 0 l 722 0 l 722 139 l 250 139 l 250 440 l 667 440 l 667 579 l 250 579 l 250 833 l 722 833 z m 340 1097 l 493 1097 l 493 1236 l 340 1236 z "},"È":{"ha":833,"x_min":0,"x_max":0,"o":"m 722 972 l 111 972 l 111 0 l 722 0 l 722 139 l 250 139 l 250 440 l 667 440 l 667 579 l 250 579 l 250 833 l 722 833 z m 72 1308 l 294 1097 l 456 1097 l 261 1308 z "},"Ē":{"ha":833,"x_min":0,"x_max":0,"o":"m 722 972 l 111 972 l 111 0 l 722 0 l 722 139 l 250 139 l 250 440 l 667 440 l 667 579 l 250 579 l 250 833 l 722 833 z m 167 1085 l 667 1085 l 667 1224 l 167 1224 z "},"Ę":{"ha":833,"x_min":0,"x_max":0,"o":"m 722 972 l 111 972 l 111 0 l 378 0 b 475 -292 261 -111 310 -292 l 564 -292 l 564 -153 b 524 0 506 -153 406 -135 l 722 0 l 722 139 l 250 139 l 250 440 l 667 440 l 667 579 l 250 579 l 250 833 l 722 833 z "},"F":{"ha":833,"x_min":0,"x_max":0,"o":"m 722 972 l 111 972 l 111 0 l 250 0 l 250 399 l 667 399 l 667 538 l 250 538 l 250 833 l 722 833 z "},"G":{"ha":833,"x_min":0,"x_max":0,"o":"m 375 524 l 375 385 l 583 385 l 583 251 b 472 140 583 190 533 140 l 361 140 b 250 251 300 140 250 190 l 250 722 b 361 833 250 783 299 833 l 472 833 b 583 722 535 833 583 785 l 583 646 l 722 646 l 722 722 b 472 972 722 861 611 972 l 361 972 b 111 722 224 972 111 861 l 111 251 b 361 0 111 114 224 0 l 472 0 b 722 251 611 0 722 114 l 722 524 z "},"Ğ":{"ha":833,"x_min":0,"x_max":0,"o":"m 375 524 l 375 385 l 583 385 l 583 251 b 472 140 583 190 533 140 l 361 140 b 250 251 300 140 250 190 l 250 722 b 361 833 250 783 299 833 l 472 833 b 583 722 535 833 583 785 l 583 646 l 722 646 l 722 722 b 472 972 722 861 611 972 l 361 972 b 111 722 224 972 111 861 l 111 251 b 361 0 111 114 224 0 l 472 0 b 722 251 611 0 722 114 l 722 524 z m 203 1311 b 417 1097 203 1193 299 1097 b 629 1311 533 1097 629 1193 l 629 1313 l 490 1313 l 490 1311 b 417 1236 490 1269 457 1236 b 342 1311 375 1236 342 1269 l 342 1313 l 203 1313 z "},"Ģ":{"ha":833,"x_min":0,"x_max":0,"o":"m 375 524 l 375 385 l 583 385 l 583 251 b 472 140 583 190 533 140 l 361 140 b 250 251 300 140 250 190 l 250 722 b 361 833 250 783 299 833 l 472 833 b 583 722 535 833 583 785 l 583 646 l 722 646 l 722 722 b 472 972 722 861 611 972 l 361 972 b 111 722 224 972 111 861 l 111 251 b 361 0 111 114 224 0 l 472 0 b 722 251 611 0 722 114 l 722 524 z m 260 -431 l 321 -431 l 465 -240 l 499 -139 l 360 -139 z "},"Ġ":{"ha":833,"x_min":0,"x_max":0,"o":"m 375 524 l 375 385 l 583 385 l 583 251 b 472 140 583 190 533 140 l 361 140 b 250 251 300 140 250 190 l 250 722 b 361 833 250 783 299 833 l 472 833 b 583 722 535 833 583 785 l 583 646 l 722 646 l 722 722 b 472 972 722 861 611 972 l 361 972 b 111 722 224 972 111 861 l 111 251 b 361 0 111 114 224 0 l 472 0 b 722 251 611 0 722 114 l 722 524 z m 340 1097 l 493 1097 l 493 1236 l 340 1236 z "},"H":{"ha":833,"x_min":0,"x_max":0,"o":"m 250 972 l 111 972 l 111 0 l 250 0 l 250 444 l 583 444 l 583 0 l 722 0 l 722 972 l 583 972 l 583 583 l 250 583 z "},"Ħ":{"ha":833,"x_min":0,"x_max":0,"o":"m 42 847 l 42 708 l 111 708 l 111 0 l 250 0 l 250 444 l 583 444 l 583 0 l 722 0 l 722 708 l 792 708 l 792 847 l 722 847 l 722 972 l 583 972 l 583 847 l 250 847 l 250 972 l 111 972 l 111 847 z m 250 583 l 250 708 l 583 708 l 583 583 z "},"I":{"ha":833,"x_min":0,"x_max":0,"o":"m 111 972 l 111 833 l 347 833 l 347 139 l 111 139 l 111 0 l 722 0 l 722 139 l 486 139 l 486 833 l 722 833 l 722 972 z "},"Í":{"ha":833,"x_min":0,"x_max":0,"o":"m 111 972 l 111 833 l 347 833 l 347 139 l 111 139 l 111 0 l 722 0 l 722 139 l 486 139 l 486 833 l 722 833 l 722 972 z m 350 1097 l 511 1097 l 733 1308 l 544 1308 z "},"Î":{"ha":833,"x_min":0,"x_max":0,"o":"m 111 972 l 111 833 l 347 833 l 347 139 l 111 139 l 111 0 l 722 0 l 722 139 l 486 139 l 486 833 l 722 833 l 722 972 z m 163 1097 l 324 1097 l 417 1193 l 510 1097 l 671 1097 l 490 1308 l 343 1308 z "},"Ï":{"ha":833,"x_min":0,"x_max":0,"o":"m 111 972 l 111 833 l 347 833 l 347 139 l 111 139 l 111 0 l 722 0 l 722 139 l 486 139 l 486 833 l 722 833 l 722 972 z m 215 1097 l 368 1097 l 368 1236 l 215 1236 z m 465 1097 l 618 1097 l 618 1236 l 465 1236 z "},"İ":{"ha":833,"x_min":0,"x_max":0,"o":"m 111 972 l 111 833 l 347 833 l 347 139 l 111 139 l 111 0 l 722 0 l 722 139 l 486 139 l 486 833 l 722 833 l 722 972 z m 340 1097 l 493 1097 l 493 1236 l 340 1236 z "},"Ì":{"ha":833,"x_min":0,"x_max":0,"o":"m 111 972 l 111 833 l 347 833 l 347 139 l 111 139 l 111 0 l 722 0 l 722 139 l 486 139 l 486 833 l 722 833 l 722 972 z m 72 1308 l 294 1097 l 456 1097 l 261 1308 z "},"Ī":{"ha":833,"x_min":0,"x_max":0,"o":"m 111 972 l 111 833 l 347 833 l 347 139 l 111 139 l 111 0 l 722 0 l 722 139 l 486 139 l 486 833 l 722 833 l 722 972 z m 167 1086 l 667 1086 l 667 1225 l 167 1225 z "},"Į":{"ha":833,"x_min":0,"x_max":0,"o":"m 111 972 l 111 833 l 347 833 l 347 139 l 111 139 l 111 0 l 567 0 b 633 -317 413 -107 456 -317 l 722 -317 l 722 -178 b 706 0 660 -178 551 -157 l 722 0 l 722 139 l 486 139 l 486 833 l 722 833 l 722 972 z "},"J":{"ha":833,"x_min":0,"x_max":0,"o":"m 236 972 l 236 833 l 583 833 l 583 251 b 472 140 583 190 533 140 l 361 140 b 250 251 300 140 250 190 l 250 369 l 111 369 l 111 251 b 361 0 111 114 222 0 l 472 0 b 722 251 610 0 722 114 l 722 972 z "},"K":{"ha":833,"x_min":0,"x_max":0,"o":"m 250 0 l 250 417 l 303 417 l 558 0 l 722 0 l 424 486 l 722 972 l 558 972 l 303 556 l 250 556 l 250 972 l 111 972 l 111 0 z "},"Ķ":{"ha":833,"x_min":0,"x_max":0,"o":"m 250 0 l 250 417 l 303 417 l 558 0 l 722 0 l 424 486 l 722 972 l 558 972 l 303 556 l 250 556 l 250 972 l 111 972 l 111 0 z m 260 -431 l 321 -431 l 465 -240 l 499 -139 l 360 -139 z "},"L":{"ha":833,"x_min":0,"x_max":0,"o":"m 250 972 l 111 972 l 111 0 l 722 0 l 722 139 l 250 139 z "},"Ĺ":{"ha":833,"x_min":0,"x_max":0,"o":"m 250 972 l 111 972 l 111 0 l 722 0 l 722 139 l 250 139 z m 114 1097 l 275 1097 l 497 1308 l 308 1308 z "},"Ľ":{"ha":833,"x_min":0,"x_max":0,"o":"m 250 972 l 111 972 l 111 0 l 722 0 l 722 139 l 250 139 z m 418 694 l 479 694 l 624 885 l 657 986 l 518 986 z "},"Ļ":{"ha":833,"x_min":0,"x_max":0,"o":"m 250 972 l 111 972 l 111 0 l 722 0 l 722 139 l 250 139 z m 260 -431 l 321 -431 l 465 -240 l 499 -139 l 360 -139 z "},"Ł":{"ha":833,"x_min":0,"x_max":0,"o":"m 513 540 l 513 689 l 250 590 l 250 972 l 111 972 l 111 539 l 29 508 l 28 360 l 111 390 l 111 0 l 722 0 l 722 139 l 250 139 l 250 443 z "},"M":{"ha":833,"x_min":0,"x_max":0,"o":"m 379 392 l 454 392 l 583 667 l 583 0 l 722 0 l 722 972 l 583 972 l 417 610 l 250 972 l 111 972 l 111 0 l 250 0 l 250 667 z "},"N":{"ha":833,"x_min":0,"x_max":0,"o":"m 583 972 l 583 233 l 313 972 l 111 972 l 111 0 l 250 0 l 250 739 l 521 0 l 722 0 l 722 972 z "},"Ń":{"ha":833,"x_min":0,"x_max":0,"o":"m 583 972 l 583 233 l 313 972 l 111 972 l 111 0 l 250 0 l 250 739 l 521 0 l 722 0 l 722 972 z m 350 1097 l 511 1097 l 733 1308 l 544 1308 z "},"Ň":{"ha":833,"x_min":0,"x_max":0,"o":"m 583 972 l 583 233 l 313 972 l 111 972 l 111 0 l 250 0 l 250 739 l 521 0 l 722 0 l 722 972 z m 163 1308 l 343 1097 l 490 1097 l 671 1308 l 510 1308 l 417 1213 l 324 1308 z "},"Ņ":{"ha":833,"x_min":0,"x_max":0,"o":"m 583 972 l 583 233 l 313 972 l 111 972 l 111 0 l 250 0 l 250 739 l 521 0 l 722 0 l 722 972 z m 260 -431 l 321 -431 l 465 -240 l 499 -139 l 360 -139 z "},"Ŋ":{"ha":833,"x_min":0,"x_max":0,"o":"m 472 -292 b 722 -42 611 -292 722 -181 l 722 972 l 583 972 l 583 233 l 313 972 l 111 972 l 111 0 l 250 0 l 250 739 l 521 0 l 583 0 l 583 -42 b 472 -153 583 -104 535 -153 l 361 -153 l 361 -292 z "},"Ñ":{"ha":833,"x_min":0,"x_max":0,"o":"m 583 972 l 583 233 l 313 972 l 111 972 l 111 0 l 250 0 l 250 739 l 521 0 l 722 0 l 722 972 z m 169 1124 l 300 1079 b 357 1125 313 1113 322 1124 l 508 1061 b 725 1201 622 1057 690 1101 l 594 1246 b 538 1200 582 1213 572 1201 l 386 1264 b 169 1124 272 1268 204 1224 z "},"O":{"ha":833,"x_min":0,"x_max":0,"o":"m 472 140 l 361 140 b 250 251 300 140 250 190 l 250 722 b 361 833 250 783 299 833 l 472 833 b 583 722 535 833 583 785 l 583 251 b 472 140 583 190 533 140 z m 111 251 b 361 0 111 114 224 0 l 472 0 b 722 251 611 0 722 114 l 722 722 b 472 972 722 861 611 972 l 361 972 b 111 722 224 972 111 861 z "},"Ó":{"ha":833,"x_min":0,"x_max":0,"o":"m 472 140 l 361 140 b 250 251 300 140 250 190 l 250 722 b 361 833 250 783 299 833 l 472 833 b 583 722 535 833 583 785 l 583 251 b 472 140 583 190 533 140 z m 111 251 b 361 0 111 114 224 0 l 472 0 b 722 251 611 0 722 114 l 722 722 b 472 972 722 861 611 972 l 361 972 b 111 722 224 972 111 861 z m 350 1097 l 511 1097 l 733 1308 l 544 1308 z "},"Ô":{"ha":833,"x_min":0,"x_max":0,"o":"m 472 140 l 361 140 b 250 251 300 140 250 190 l 250 722 b 361 833 250 783 299 833 l 472 833 b 583 722 535 833 583 785 l 583 251 b 472 140 583 190 533 140 z m 111 251 b 361 0 111 114 224 0 l 472 0 b 722 251 611 0 722 114 l 722 722 b 472 972 722 861 611 972 l 361 972 b 111 722 224 972 111 861 z m 163 1097 l 324 1097 l 417 1193 l 510 1097 l 671 1097 l 490 1308 l 343 1308 z "},"Ö":{"ha":833,"x_min":0,"x_max":0,"o":"m 472 140 l 361 140 b 250 251 300 140 250 190 l 250 722 b 361 833 250 783 299 833 l 472 833 b 583 722 535 833 583 785 l 583 251 b 472 140 583 190 533 140 z m 111 251 b 361 0 111 114 224 0 l 472 0 b 722 251 611 0 722 114 l 722 722 b 472 972 722 861 611 972 l 361 972 b 111 722 224 972 111 861 z m 215 1097 l 368 1097 l 368 1236 l 215 1236 z m 465 1097 l 618 1097 l 618 1236 l 465 1236 z "},"Ò":{"ha":833,"x_min":0,"x_max":0,"o":"m 472 140 l 361 140 b 250 251 300 140 250 190 l 250 722 b 361 833 250 783 299 833 l 472 833 b 583 722 535 833 583 785 l 583 251 b 472 140 583 190 533 140 z m 72 1308 l 294 1097 l 456 1097 l 261 1308 z m 111 251 b 361 0 111 114 224 0 l 472 0 b 722 251 611 0 722 114 l 722 722 b 472 972 722 861 611 972 l 361 972 b 111 722 224 972 111 861 z "},"Ő":{"ha":833,"x_min":0,"x_max":0,"o":"m 472 140 l 361 140 b 250 251 300 140 250 190 l 250 722 b 361 833 250 783 299 833 l 472 833 b 583 722 535 833 583 785 l 583 251 b 472 140 583 190 533 140 z m 111 251 b 361 0 111 114 224 0 l 472 0 b 722 251 611 0 722 114 l 722 722 b 472 972 722 861 611 972 l 361 972 b 111 722 224 972 111 861 z m 183 1097 l 344 1097 l 567 1308 l 378 1308 z m 461 1097 l 622 1097 l 844 1308 l 656 1308 z "},"Ō":{"ha":833,"x_min":0,"x_max":0,"o":"m 472 140 l 361 140 b 250 251 300 140 250 190 l 250 722 b 361 833 250 783 299 833 l 472 833 b 583 722 535 833 583 785 l 583 251 b 472 140 583 190 533 140 z m 111 251 b 361 0 111 114 224 0 l 472 0 b 722 251 611 0 722 114 l 722 722 b 472 972 722 861 611 972 l 361 972 b 111 722 224 972 111 861 z m 167 1097 l 667 1097 l 667 1236 l 167 1236 z "},"Ø":{"ha":833,"x_min":0,"x_max":0,"o":"m 472 140 l 361 140 l 583 732 l 583 722 l 583 251 b 472 140 583 190 533 140 z m 106 -146 l 254 -146 l 311 6 b 361 0 326 1 344 0 l 472 0 b 722 251 611 0 722 114 l 722 722 b 647 901 722 793 693 857 l 728 1118 l 579 1118 l 522 967 b 472 972 507 971 489 972 l 361 972 b 111 722 224 972 111 861 l 111 251 b 188 72 111 182 140 118 z m 250 251 l 250 722 b 361 833 250 783 299 833 l 472 833 l 250 240 z "},"Õ":{"ha":833,"x_min":0,"x_max":0,"o":"m 472 140 l 361 140 b 250 251 300 140 250 190 l 250 722 b 361 833 250 783 299 833 l 472 833 b 583 722 535 833 583 785 l 583 251 b 472 140 583 190 533 140 z m 111 251 b 361 0 111 114 224 0 l 472 0 b 722 251 611 0 722 114 l 722 722 b 472 972 722 861 611 972 l 361 972 b 111 722 224 972 111 861 z m 169 1124 l 300 1079 b 357 1125 313 1113 322 1124 l 508 1061 b 725 1201 622 1057 690 1101 l 594 1246 b 538 1200 582 1213 572 1201 l 386 1264 b 169 1124 272 1268 204 1224 z "},"Œ":{"ha":833,"x_min":0,"x_max":0,"o":"m 292 140 b 181 251 231 140 181 190 l 181 722 b 292 833 181 783 229 833 b 403 722 354 833 403 785 l 403 251 b 292 140 403 190 353 140 z m 42 251 b 292 0 42 118 150 0 b 403 26 332 0 369 10 l 403 0 l 792 0 l 792 139 l 542 139 l 542 440 l 764 440 l 764 579 l 542 579 l 542 833 l 792 833 l 792 972 l 403 972 l 403 947 b 292 972 369 963 332 972 b 42 722 154 972 42 861 z "},"P":{"ha":833,"x_min":0,"x_max":0,"o":"m 722 639 l 722 722 b 472 972 722 861 611 972 l 111 972 l 111 0 l 250 0 l 250 389 l 472 389 b 722 639 611 389 722 500 z m 250 528 l 250 833 l 472 833 b 583 722 535 833 583 785 l 583 639 b 472 528 583 576 535 528 z "},"Þ":{"ha":833,"x_min":0,"x_max":0,"o":"m 722 458 l 722 542 b 472 792 722 681 611 792 l 250 792 l 250 972 l 111 972 l 111 0 l 250 0 l 250 208 l 472 208 b 722 458 611 208 722 319 z m 250 347 l 250 653 l 472 653 b 583 542 535 653 583 604 l 583 458 b 472 347 583 396 535 347 z "},"Q":{"ha":833,"x_min":0,"x_max":0,"o":"m 722 -114 l 622 50 b 722 251 683 96 722 169 l 722 722 b 472 972 722 861 611 972 l 361 972 b 111 722 224 972 111 861 l 111 251 b 361 0 111 114 224 0 l 472 0 l 488 0 l 600 -182 z m 250 251 l 250 722 b 361 833 250 783 299 833 l 472 833 b 583 722 535 833 583 785 l 583 251 b 472 140 583 190 533 140 l 361 140 b 250 251 300 140 250 190 z "},"R":{"ha":833,"x_min":0,"x_max":0,"o":"m 722 0 l 540 399 b 722 639 646 428 722 524 l 722 722 b 472 972 722 861 611 972 l 111 972 l 111 0 l 250 0 l 250 389 l 393 389 l 569 0 z m 250 528 l 250 833 l 472 833 b 583 722 535 833 583 785 l 583 639 b 472 528 583 576 535 528 z "},"Ŕ":{"ha":833,"x_min":0,"x_max":0,"o":"m 722 0 l 540 399 b 722 639 646 428 722 524 l 722 722 b 472 972 722 861 611 972 l 111 972 l 111 0 l 250 0 l 250 389 l 393 389 l 569 0 z m 250 528 l 250 833 l 472 833 b 583 722 535 833 583 785 l 583 639 b 472 528 583 576 535 528 z m 350 1097 l 511 1097 l 733 1308 l 544 1308 z "},"Ř":{"ha":833,"x_min":0,"x_max":0,"o":"m 722 0 l 540 399 b 722 639 646 428 722 524 l 722 722 b 472 972 722 861 611 972 l 111 972 l 111 0 l 250 0 l 250 389 l 393 389 l 569 0 z m 163 1308 l 343 1097 l 490 1097 l 671 1308 l 510 1308 l 417 1213 l 324 1308 z m 250 528 l 250 833 l 472 833 b 583 722 535 833 583 785 l 583 639 b 472 528 583 576 535 528 z "},"Ŗ":{"ha":833,"x_min":0,"x_max":0,"o":"m 722 0 l 540 399 b 722 639 646 428 722 524 l 722 722 b 472 972 722 861 611 972 l 111 972 l 111 0 l 250 0 l 250 389 l 393 389 l 569 0 z m 250 528 l 250 833 l 472 833 b 583 722 535 833 583 785 l 583 639 b 472 528 583 576 535 528 z m 260 -431 l 321 -431 l 465 -240 l 499 -139 l 360 -139 z "},"S":{"ha":833,"x_min":0,"x_max":0,"o":"m 111 314 l 111 258 b 369 0 111 115 226 0 l 463 0 b 722 244 610 0 722 106 b 264 742 722 538 264 594 b 383 833 264 799 308 833 l 449 833 b 569 714 515 833 569 781 l 569 672 l 708 672 l 708 714 b 449 972 708 857 592 972 l 383 972 b 125 742 232 972 125 878 b 583 244 125 478 583 436 b 463 139 583 183 533 139 l 369 139 b 250 258 304 139 250 193 l 250 314 z "},"Ś":{"ha":833,"x_min":0,"x_max":0,"o":"m 111 314 l 111 258 b 369 0 111 115 226 0 l 463 0 b 722 244 610 0 722 106 b 264 742 722 538 264 594 b 383 833 264 799 308 833 l 449 833 b 569 714 515 833 569 781 l 569 672 l 708 672 l 708 714 b 449 972 708 857 592 972 l 383 972 b 125 742 232 972 125 878 b 583 244 125 478 583 436 b 463 139 583 183 533 139 l 369 139 b 250 258 304 139 250 193 l 250 314 z m 350 1097 l 511 1097 l 733 1308 l 544 1308 z "},"Š":{"ha":833,"x_min":0,"x_max":0,"o":"m 111 314 l 111 258 b 369 0 111 115 226 0 l 463 0 b 722 244 610 0 722 106 b 264 742 722 538 264 594 b 383 833 264 799 308 833 l 449 833 b 569 714 515 833 569 781 l 569 672 l 708 672 l 708 714 b 449 972 708 857 592 972 l 383 972 b 125 742 232 972 125 878 b 583 244 125 478 583 436 b 463 139 583 183 533 139 l 369 139 b 250 258 304 139 250 193 l 250 314 z m 163 1308 l 343 1097 l 490 1097 l 671 1308 l 510 1308 l 417 1213 l 324 1308 z "},"Ş":{"ha":833,"x_min":0,"x_max":0,"o":"m 111 314 l 111 258 b 349 1 111 122 215 11 l 329 -60 l 389 -172 l 494 -172 b 531 -212 514 -172 531 -190 b 494 -250 531 -232 513 -250 l 336 -250 l 336 -389 l 494 -389 b 669 -212 590 -389 669 -308 b 494 -33 669 -114 590 -33 l 482 -33 l 488 0 l 488 1 b 722 244 622 13 722 114 b 264 742 722 538 264 594 b 383 833 264 799 308 833 l 449 833 b 569 714 515 833 569 781 l 569 672 l 708 672 l 708 714 b 449 972 708 857 592 972 l 383 972 b 125 742 232 972 125 878 b 583 244 125 478 583 436 b 463 139 583 183 533 139 l 369 139 b 250 258 304 139 250 193 l 250 314 z "},"Ș":{"ha":833,"x_min":0,"x_max":0,"o":"m 111 314 l 111 258 b 369 0 111 115 226 0 l 463 0 b 722 244 610 0 722 106 b 264 742 722 538 264 594 b 383 833 264 799 308 833 l 449 833 b 569 714 515 833 569 781 l 569 672 l 708 672 l 708 714 b 449 972 708 857 592 972 l 383 972 b 125 742 232 972 125 878 b 583 244 125 478 583 436 b 463 139 583 183 533 139 l 369 139 b 250 258 304 139 250 193 l 250 314 z m 260 -431 l 321 -431 l 465 -240 l 499 -139 l 360 -139 z "},"T":{"ha":833,"x_min":0,"x_max":0,"o":"m 111 972 l 111 833 l 347 833 l 347 0 l 486 0 l 486 833 l 722 833 l 722 972 z "},"Ŧ":{"ha":833,"x_min":0,"x_max":0,"o":"m 111 972 l 111 833 l 347 833 l 347 440 l 167 440 l 167 301 l 347 301 l 347 0 l 486 0 l 486 301 l 667 301 l 667 440 l 486 440 l 486 833 l 722 833 l 722 972 z "},"Ť":{"ha":833,"x_min":0,"x_max":0,"o":"m 111 972 l 111 833 l 347 833 l 347 0 l 486 0 l 486 833 l 722 833 l 722 972 z m 163 1308 l 343 1097 l 490 1097 l 671 1308 l 510 1308 l 417 1213 l 324 1308 z "},"Ţ":{"ha":833,"x_min":0,"x_max":0,"o":"m 111 972 l 111 833 l 347 833 l 347 0 l 349 0 l 329 -60 l 389 -172 l 494 -172 b 531 -212 514 -172 531 -190 b 494 -250 531 -232 513 -250 l 336 -250 l 336 -389 l 494 -389 b 669 -212 590 -389 669 -308 b 494 -33 669 -114 590 -33 l 482 -33 l 488 0 l 488 46 l 486 46 l 486 833 l 722 833 l 722 972 z "},"Ț":{"ha":833,"x_min":0,"x_max":0,"o":"m 111 972 l 111 833 l 347 833 l 347 0 l 486 0 l 486 833 l 722 833 l 722 972 z m 260 -431 l 321 -431 l 465 -240 l 499 -139 l 360 -139 z "},"U":{"ha":833,"x_min":0,"x_max":0,"o":"m 722 251 l 722 972 l 583 972 l 583 251 b 472 140 583 190 533 140 l 361 140 b 250 251 300 140 250 190 l 250 972 l 111 972 l 111 251 b 361 0 111 114 222 0 l 472 0 b 722 251 610 0 722 114 z "},"Ú":{"ha":833,"x_min":0,"x_max":0,"o":"m 722 251 l 722 972 l 583 972 l 583 251 b 472 140 583 190 533 140 l 361 140 b 250 251 300 140 250 190 l 250 972 l 111 972 l 111 251 b 361 0 111 114 222 0 l 472 0 b 722 251 610 0 722 114 z m 350 1097 l 511 1097 l 733 1308 l 544 1308 z "},"Û":{"ha":833,"x_min":0,"x_max":0,"o":"m 722 251 l 722 972 l 583 972 l 583 251 b 472 140 583 190 533 140 l 361 140 b 250 251 300 140 250 190 l 250 972 l 111 972 l 111 251 b 361 0 111 114 222 0 l 472 0 b 722 251 610 0 722 114 z m 163 1097 l 324 1097 l 417 1193 l 510 1097 l 671 1097 l 490 1308 l 343 1308 z "},"Ü":{"ha":833,"x_min":0,"x_max":0,"o":"m 722 251 l 722 972 l 583 972 l 583 251 b 472 140 583 190 533 140 l 361 140 b 250 251 300 140 250 190 l 250 972 l 111 972 l 111 251 b 361 0 111 114 222 0 l 472 0 b 722 251 610 0 722 114 z m 215 1097 l 368 1097 l 368 1236 l 215 1236 z m 465 1097 l 618 1097 l 618 1236 l 465 1236 z "},"Ù":{"ha":833,"x_min":0,"x_max":0,"o":"m 722 251 l 722 972 l 583 972 l 583 251 b 472 140 583 190 533 140 l 361 140 b 250 251 300 140 250 190 l 250 972 l 111 972 l 111 251 b 361 0 111 114 222 0 l 472 0 b 722 251 610 0 722 114 z m 72 1308 l 294 1097 l 456 1097 l 261 1308 z "},"Ű":{"ha":833,"x_min":0,"x_max":0,"o":"m 722 251 l 722 972 l 583 972 l 583 251 b 472 140 583 190 533 140 l 361 140 b 250 251 300 140 250 190 l 250 972 l 111 972 l 111 251 b 361 0 111 114 222 0 l 472 0 b 722 251 610 0 722 114 z m 183 1097 l 344 1097 l 567 1308 l 378 1308 z m 461 1097 l 622 1097 l 844 1308 l 656 1308 z "},"Ū":{"ha":833,"x_min":0,"x_max":0,"o":"m 722 251 l 722 972 l 583 972 l 583 251 b 472 140 583 190 533 140 l 361 140 b 250 251 300 140 250 190 l 250 972 l 111 972 l 111 251 b 361 0 111 114 222 0 l 472 0 b 722 251 610 0 722 114 z m 167 1097 l 667 1097 l 667 1236 l 167 1236 z "},"Ų":{"ha":833,"x_min":0,"x_max":0,"o":"m 722 251 l 722 972 l 583 972 l 583 251 b 472 140 583 190 533 140 l 361 140 b 250 251 300 140 250 190 l 250 972 l 111 972 l 111 251 b 361 0 111 114 222 0 l 378 0 b 475 -292 261 -111 310 -292 l 564 -292 l 564 -153 b 531 7 504 -153 401 -133 b 722 251 640 33 722 133 z "},"Ů":{"ha":833,"x_min":0,"x_max":0,"o":"m 722 251 l 722 972 l 583 972 l 583 251 b 472 140 583 190 533 140 l 361 140 b 250 251 300 140 250 190 l 250 972 l 111 972 l 111 251 b 361 0 111 114 222 0 l 472 0 b 722 251 610 0 722 114 z m 240 1272 b 417 1097 240 1175 318 1097 b 592 1272 513 1097 592 1176 b 417 1447 592 1369 513 1447 b 240 1272 318 1447 240 1369 z m 379 1272 b 417 1308 379 1293 394 1308 b 453 1272 436 1308 453 1293 b 417 1236 453 1253 436 1236 b 379 1272 394 1236 379 1253 z "},"V":{"ha":833,"x_min":0,"x_max":0,"o":"m 583 972 l 583 678 l 418 219 l 415 219 l 250 678 l 250 972 l 111 972 l 111 653 l 347 0 l 486 0 l 722 653 l 722 972 z "},"W":{"ha":833,"x_min":0,"x_max":0,"o":"m 474 722 l 360 722 l 283 285 l 250 694 l 250 972 l 111 972 l 111 653 l 194 0 l 306 0 l 417 415 l 528 0 l 639 0 l 722 653 l 722 972 l 583 972 l 583 694 l 550 285 z "},"Ẃ":{"ha":833,"x_min":0,"x_max":0,"o":"m 474 722 l 360 722 l 283 285 l 250 694 l 250 972 l 111 972 l 111 653 l 194 0 l 306 0 l 417 415 l 528 0 l 639 0 l 722 653 l 722 972 l 583 972 l 583 694 l 550 285 z m 350 1097 l 511 1097 l 733 1308 l 544 1308 z "},"Ŵ":{"ha":833,"x_min":0,"x_max":0,"o":"m 474 722 l 360 722 l 283 285 l 250 694 l 250 972 l 111 972 l 111 653 l 194 0 l 306 0 l 417 415 l 528 0 l 639 0 l 722 653 l 722 972 l 583 972 l 583 694 l 550 285 z m 163 1097 l 324 1097 l 417 1193 l 510 1097 l 671 1097 l 490 1308 l 343 1308 z "},"Ẅ":{"ha":833,"x_min":0,"x_max":0,"o":"m 474 722 l 360 722 l 283 285 l 250 694 l 250 972 l 111 972 l 111 653 l 194 0 l 306 0 l 417 415 l 528 0 l 639 0 l 722 653 l 722 972 l 583 972 l 583 694 l 550 285 z m 215 1097 l 368 1097 l 368 1236 l 215 1236 z m 465 1097 l 618 1097 l 618 1236 l 465 1236 z "},"Ẁ":{"ha":833,"x_min":0,"x_max":0,"o":"m 474 722 l 360 722 l 283 285 l 250 694 l 250 972 l 111 972 l 111 653 l 194 0 l 306 0 l 417 415 l 528 0 l 639 0 l 722 653 l 722 972 l 583 972 l 583 694 l 550 285 z m 72 1308 l 294 1097 l 456 1097 l 261 1308 z "},"X":{"ha":833,"x_min":0,"x_max":0,"o":"m 111 0 l 264 0 l 417 324 l 569 0 l 722 0 l 493 486 l 722 972 l 569 972 l 417 649 l 264 972 l 111 972 l 340 486 z "},"Y":{"ha":833,"x_min":0,"x_max":0,"o":"m 347 0 l 486 0 l 486 346 l 722 656 l 722 972 l 583 972 l 583 703 l 417 485 l 414 485 l 250 689 l 250 972 l 111 972 l 111 639 l 347 346 z "},"Ý":{"ha":833,"x_min":0,"x_max":0,"o":"m 347 0 l 486 0 l 486 346 l 722 656 l 722 972 l 583 972 l 583 703 l 417 485 l 414 485 l 250 689 l 250 972 l 111 972 l 111 639 l 347 346 z m 350 1097 l 511 1097 l 733 1308 l 544 1308 z "},"Ŷ":{"ha":833,"x_min":0,"x_max":0,"o":"m 347 0 l 486 0 l 486 346 l 722 656 l 722 972 l 583 972 l 583 703 l 417 485 l 414 485 l 250 689 l 250 972 l 111 972 l 111 639 l 347 346 z m 163 1097 l 324 1097 l 417 1193 l 510 1097 l 671 1097 l 490 1308 l 343 1308 z "},"Ÿ":{"ha":833,"x_min":0,"x_max":0,"o":"m 347 0 l 486 0 l 486 346 l 722 656 l 722 972 l 583 972 l 583 703 l 417 485 l 414 485 l 250 689 l 250 972 l 111 972 l 111 639 l 347 346 z m 215 1097 l 368 1097 l 368 1236 l 215 1236 z m 465 1097 l 618 1097 l 618 1236 l 465 1236 z "},"Ỳ":{"ha":833,"x_min":0,"x_max":0,"o":"m 347 0 l 486 0 l 486 346 l 722 656 l 722 972 l 583 972 l 583 703 l 417 485 l 414 485 l 250 689 l 250 972 l 111 972 l 111 639 l 347 346 z m 72 1308 l 294 1097 l 456 1097 l 261 1308 z "},"Z":{"ha":833,"x_min":0,"x_max":0,"o":"m 111 972 l 111 833 l 558 833 l 111 139 l 111 0 l 722 0 l 722 139 l 276 139 l 722 833 l 722 972 z "},"Ź":{"ha":833,"x_min":0,"x_max":0,"o":"m 111 972 l 111 833 l 558 833 l 111 139 l 111 0 l 722 0 l 722 139 l 276 139 l 722 833 l 722 972 z m 350 1097 l 511 1097 l 733 1308 l 544 1308 z "},"Ž":{"ha":833,"x_min":0,"x_max":0,"o":"m 111 972 l 111 833 l 558 833 l 111 139 l 111 0 l 722 0 l 722 139 l 276 139 l 722 833 l 722 972 z m 163 1308 l 343 1097 l 490 1097 l 671 1308 l 510 1308 l 417 1213 l 324 1308 z "},"Ż":{"ha":833,"x_min":0,"x_max":0,"o":"m 111 972 l 111 833 l 558 833 l 111 139 l 111 0 l 722 0 l 722 139 l 276 139 l 722 833 l 722 972 z m 340 1097 l 493 1097 l 493 1236 l 340 1236 z "},"a":{"ha":833,"x_min":0,"x_max":0,"o":"m 722 708 l 583 708 l 583 631 l 468 708 l 361 708 b 111 458 224 708 111 597 l 111 250 b 361 0 111 113 224 0 l 468 0 l 583 78 l 583 0 l 722 0 z m 250 250 l 250 458 b 361 569 250 519 300 569 l 425 569 l 583 463 l 583 246 l 425 139 l 361 139 b 250 250 300 139 250 189 z "},"á":{"ha":833,"x_min":0,"x_max":0,"o":"m 722 708 l 583 708 l 583 631 l 468 708 l 361 708 b 111 458 224 708 111 597 l 111 250 b 361 0 111 113 224 0 l 468 0 l 583 78 l 583 0 l 722 0 z m 250 250 l 250 458 b 361 569 250 519 300 569 l 425 569 l 583 463 l 583 246 l 425 139 l 361 139 b 250 250 300 139 250 189 z m 378 833 l 539 833 l 761 1044 l 572 1044 z "},"ă":{"ha":833,"x_min":0,"x_max":0,"o":"m 722 708 l 583 708 l 583 631 l 468 708 l 361 708 b 111 458 224 708 111 597 l 111 250 b 361 0 111 113 224 0 l 468 0 l 583 78 l 583 0 l 722 0 z m 231 1047 b 444 833 231 929 326 833 b 657 1047 561 833 657 929 l 657 1049 l 518 1049 l 518 1047 b 444 972 518 1006 485 972 b 369 1047 403 972 369 1006 l 369 1049 l 231 1049 z m 250 250 l 250 458 b 361 569 250 519 300 569 l 425 569 l 583 463 l 583 246 l 425 139 l 361 139 b 250 250 300 139 250 189 z "},"â":{"ha":833,"x_min":0,"x_max":0,"o":"m 722 708 l 583 708 l 583 631 l 468 708 l 361 708 b 111 458 224 708 111 597 l 111 250 b 361 0 111 113 224 0 l 468 0 l 583 78 l 583 0 l 722 0 z m 190 833 l 351 833 l 444 929 l 538 833 l 699 833 l 518 1044 l 371 1044 z m 250 250 l 250 458 b 361 569 250 519 300 569 l 425 569 l 583 463 l 583 246 l 425 139 l 361 139 b 250 250 300 139 250 189 z "},"ä":{"ha":833,"x_min":0,"x_max":0,"o":"m 722 708 l 583 708 l 583 631 l 468 708 l 361 708 b 111 458 224 708 111 597 l 111 250 b 361 0 111 113 224 0 l 468 0 l 583 78 l 583 0 l 722 0 z m 243 833 l 396 833 l 396 972 l 243 972 z m 250 250 l 250 458 b 361 569 250 519 300 569 l 425 569 l 583 463 l 583 246 l 425 139 l 361 139 b 250 250 300 139 250 189 z m 493 833 l 646 833 l 646 972 l 493 972 z "},"à":{"ha":833,"x_min":0,"x_max":0,"o":"m 722 708 l 583 708 l 583 631 l 468 708 l 361 708 b 111 458 224 708 111 597 l 111 250 b 361 0 111 113 224 0 l 468 0 l 583 78 l 583 0 l 722 0 z m 100 1044 l 322 833 l 483 833 l 289 1044 z m 250 250 l 250 458 b 361 569 250 519 300 569 l 425 569 l 583 463 l 583 246 l 425 139 l 361 139 b 250 250 300 139 250 189 z "},"ā":{"ha":833,"x_min":0,"x_max":0,"o":"m 722 708 l 583 708 l 583 631 l 468 708 l 361 708 b 111 458 224 708 111 597 l 111 250 b 361 0 111 113 224 0 l 468 0 l 583 78 l 583 0 l 722 0 z m 194 833 l 694 833 l 694 972 l 194 972 z m 250 250 l 250 458 b 361 569 250 519 300 569 l 425 569 l 583 463 l 583 246 l 425 139 l 361 139 b 250 250 300 139 250 189 z "},"ą":{"ha":833,"x_min":0,"x_max":0,"o":"m 722 708 l 583 708 l 583 631 l 468 708 l 361 708 b 111 458 224 708 111 597 l 111 250 b 361 0 111 113 224 0 l 468 0 l 583 78 l 583 0 b 650 -317 429 -107 472 -317 l 739 -317 l 739 -178 b 722 0 676 -178 568 -157 z m 250 250 l 250 458 b 361 569 250 519 300 569 l 425 569 l 583 463 l 583 246 l 425 139 l 361 139 b 250 250 300 139 250 189 z "},"å":{"ha":833,"x_min":0,"x_max":0,"o":"m 722 708 l 583 708 l 583 631 l 468 708 l 361 708 b 111 458 224 708 111 597 l 111 250 b 361 0 111 113 224 0 l 468 0 l 583 78 l 583 0 l 722 0 z m 250 250 l 250 458 b 361 569 250 519 300 569 l 425 569 l 583 463 l 583 246 l 425 139 l 361 139 b 250 250 300 139 250 189 z m 268 1008 b 444 833 268 911 346 833 b 619 1008 540 833 619 913 b 444 1183 619 1106 540 1183 b 268 1008 346 1183 268 1106 z m 407 1008 b 444 1044 407 1029 422 1044 b 481 1008 464 1044 481 1029 b 444 972 481 989 464 972 b 407 1008 422 972 407 989 z "},"ã":{"ha":833,"x_min":0,"x_max":0,"o":"m 722 708 l 583 708 l 583 631 l 468 708 l 361 708 b 111 458 224 708 111 597 l 111 250 b 361 0 111 113 224 0 l 468 0 l 583 78 l 583 0 l 722 0 z m 197 860 l 328 815 b 385 861 340 849 350 860 l 536 797 b 753 938 650 793 718 838 l 622 982 b 565 936 610 949 600 938 l 414 1000 b 197 860 300 1004 232 960 z m 250 250 l 250 458 b 361 569 250 519 300 569 l 425 569 l 583 463 l 583 246 l 425 139 l 361 139 b 250 250 300 139 250 189 z "},"æ":{"ha":833,"x_min":0,"x_max":0,"o":"m 486 708 l 347 708 l 347 663 l 274 708 l 236 708 b 28 458 113 708 28 625 l 28 250 b 236 0 28 85 113 0 l 274 0 l 347 46 l 347 0 l 486 0 l 486 18 b 576 0 513 7 543 0 b 806 251 715 0 806 114 l 667 251 b 576 140 667 190 638 140 b 486 251 515 140 486 190 l 486 322 l 806 322 l 806 458 b 576 708 806 593 719 708 b 486 690 543 708 513 701 z m 167 250 l 167 458 b 225 569 167 519 178 569 l 233 569 l 347 497 l 347 211 l 233 139 l 225 139 b 167 250 178 139 167 189 z m 486 433 l 486 458 b 576 569 486 519 514 569 b 667 458 639 569 667 521 l 667 433 z "},"b":{"ha":833,"x_min":0,"x_max":0,"o":"m 111 986 l 111 0 l 250 0 l 250 78 l 365 0 l 472 0 b 722 250 610 0 722 113 l 722 458 b 472 708 722 597 610 708 l 365 708 l 250 631 l 250 986 z m 250 246 l 250 463 l 408 569 l 472 569 b 583 458 533 569 583 519 l 583 250 b 472 139 583 189 533 139 l 408 139 z "},"c":{"ha":833,"x_min":0,"x_max":0,"o":"m 583 458 l 583 444 l 722 444 l 722 458 b 472 708 722 597 611 708 l 361 708 b 111 458 224 708 111 597 l 111 251 b 361 0 111 114 224 0 l 472 0 b 722 251 611 0 722 114 l 722 265 l 583 265 l 583 251 b 472 140 583 190 533 140 l 361 140 b 250 251 300 140 250 190 l 250 458 b 361 569 250 519 299 569 l 472 569 b 583 458 535 569 583 521 z "},"ć":{"ha":833,"x_min":0,"x_max":0,"o":"m 583 458 l 583 444 l 722 444 l 722 458 b 472 708 722 597 611 708 l 361 708 b 111 458 224 708 111 597 l 111 251 b 361 0 111 114 224 0 l 472 0 b 722 251 611 0 722 114 l 722 265 l 583 265 l 583 251 b 472 140 583 190 533 140 l 361 140 b 250 251 300 140 250 190 l 250 458 b 361 569 250 519 299 569 l 472 569 b 583 458 535 569 583 521 z m 350 833 l 511 833 l 733 1044 l 544 1044 z "},"č":{"ha":833,"x_min":0,"x_max":0,"o":"m 583 458 l 583 444 l 722 444 l 722 458 b 472 708 722 597 611 708 l 361 708 b 111 458 224 708 111 597 l 111 251 b 361 0 111 114 224 0 l 472 0 b 722 251 611 0 722 114 l 722 265 l 583 265 l 583 251 b 472 140 583 190 533 140 l 361 140 b 250 251 300 140 250 190 l 250 458 b 361 569 250 519 299 569 l 472 569 b 583 458 535 569 583 521 z m 163 1044 l 343 833 l 490 833 l 671 1044 l 510 1044 l 417 949 l 324 1044 z "},"ç":{"ha":833,"x_min":0,"x_max":0,"o":"m 583 458 l 583 444 l 722 444 l 722 458 b 472 708 722 597 611 708 l 361 708 b 111 458 224 708 111 597 l 111 251 b 350 0 111 118 218 6 l 331 -60 l 390 -172 l 496 -172 b 532 -212 515 -172 532 -190 b 496 -250 532 -232 514 -250 l 338 -250 l 338 -389 l 496 -389 b 671 -212 592 -389 671 -308 b 496 -33 671 -114 592 -33 l 483 -33 l 489 0 b 722 251 619 10 722 119 l 722 265 l 583 265 l 583 251 b 472 140 583 190 533 140 l 361 140 b 250 251 300 140 250 190 l 250 458 b 361 569 250 519 299 569 l 472 569 b 583 458 535 569 583 521 z "},"ċ":{"ha":833,"x_min":0,"x_max":0,"o":"m 583 458 l 583 444 l 722 444 l 722 458 b 472 708 722 597 611 708 l 361 708 b 111 458 224 708 111 597 l 111 251 b 361 0 111 114 224 0 l 472 0 b 722 251 611 0 722 114 l 722 265 l 583 265 l 583 251 b 472 140 583 190 533 140 l 361 140 b 250 251 300 140 250 190 l 250 458 b 361 569 250 519 299 569 l 472 569 b 583 458 535 569 583 521 z m 340 833 l 493 833 l 493 972 l 340 972 z "},"d":{"ha":833,"x_min":0,"x_max":0,"o":"m 722 986 l 583 986 l 583 631 l 468 708 l 361 708 b 111 458 224 708 111 597 l 111 250 b 361 0 111 113 224 0 l 468 0 l 583 78 l 583 0 l 722 0 z m 250 250 l 250 458 b 361 569 250 519 300 569 l 425 569 l 583 463 l 583 246 l 425 139 l 361 139 b 250 250 300 139 250 189 z "},"ď":{"ha":833,"x_min":0,"x_max":0,"o":"m 722 986 l 583 986 l 583 631 l 468 708 l 361 708 b 111 458 224 708 111 597 l 111 250 b 361 0 111 113 224 0 l 468 0 l 583 78 l 583 0 l 722 0 z m 250 250 l 250 458 b 361 569 250 519 300 569 l 425 569 l 583 463 l 583 246 l 425 139 l 361 139 b 250 250 300 139 250 189 z m 833 846 l 861 694 l 944 694 l 972 846 l 972 986 l 833 986 z "},"đ":{"ha":833,"x_min":0,"x_max":0,"o":"m 722 986 l 583 986 l 583 919 l 292 919 l 292 781 l 583 781 l 583 631 l 468 708 l 361 708 b 111 458 224 708 111 597 l 111 250 b 361 0 111 113 224 0 l 468 0 l 583 78 l 583 0 l 722 0 l 722 781 l 792 781 l 792 919 l 722 919 z m 250 250 l 250 458 b 361 569 250 519 300 569 l 425 569 l 583 463 l 583 246 l 425 139 l 361 139 b 250 250 300 139 250 189 z "},"e":{"ha":833,"x_min":0,"x_max":0,"o":"m 722 472 b 472 708 715 604 607 708 l 361 708 b 111 458 224 708 111 597 l 111 251 b 361 0 111 114 224 0 l 472 0 b 722 251 611 0 722 114 l 722 265 l 583 265 l 583 251 b 472 140 583 190 533 140 l 361 140 b 250 251 300 140 250 190 l 250 322 l 722 322 z m 250 433 l 250 458 b 361 569 250 519 299 569 l 472 569 b 583 458 535 569 583 521 l 583 433 z "},"é":{"ha":833,"x_min":0,"x_max":0,"o":"m 722 472 b 472 708 715 604 607 708 l 361 708 b 111 458 224 708 111 597 l 111 251 b 361 0 111 114 224 0 l 472 0 b 722 251 611 0 722 114 l 722 265 l 583 265 l 583 251 b 472 140 583 190 533 140 l 361 140 b 250 251 300 140 250 190 l 250 322 l 722 322 z m 250 433 l 250 458 b 361 569 250 519 299 569 l 472 569 b 583 458 535 569 583 521 l 583 433 z m 329 833 l 490 833 l 713 1044 l 524 1044 z "},"ě":{"ha":833,"x_min":0,"x_max":0,"o":"m 722 472 b 472 708 715 604 607 708 l 361 708 b 111 458 224 708 111 597 l 111 251 b 361 0 111 114 224 0 l 472 0 b 722 251 611 0 722 114 l 722 265 l 583 265 l 583 251 b 472 140 583 190 533 140 l 361 140 b 250 251 300 140 250 190 l 250 322 l 722 322 z m 163 1044 l 343 833 l 490 833 l 671 1044 l 510 1044 l 417 949 l 324 1044 z m 250 433 l 250 458 b 361 569 250 519 299 569 l 472 569 b 583 458 535 569 583 521 l 583 433 z "},"ê":{"ha":833,"x_min":0,"x_max":0,"o":"m 722 472 b 472 708 715 604 607 708 l 361 708 b 111 458 224 708 111 597 l 111 251 b 361 0 111 114 224 0 l 472 0 b 722 251 611 0 722 114 l 722 265 l 583 265 l 583 251 b 472 140 583 190 533 140 l 361 140 b 250 251 300 140 250 190 l 250 322 l 722 322 z m 163 833 l 324 833 l 417 929 l 510 833 l 671 833 l 490 1044 l 343 1044 z m 250 433 l 250 458 b 361 569 250 519 299 569 l 472 569 b 583 458 535 569 583 521 l 583 433 z "},"ë":{"ha":833,"x_min":0,"x_max":0,"o":"m 722 472 b 472 708 715 604 607 708 l 361 708 b 111 458 224 708 111 597 l 111 251 b 361 0 111 114 224 0 l 472 0 b 722 251 611 0 722 114 l 722 265 l 583 265 l 583 251 b 472 140 583 190 533 140 l 361 140 b 250 251 300 140 250 190 l 250 322 l 722 322 z m 215 833 l 368 833 l 368 972 l 215 972 z m 250 433 l 250 458 b 361 569 250 519 299 569 l 472 569 b 583 458 535 569 583 521 l 583 433 z m 465 833 l 618 833 l 618 972 l 465 972 z "},"ė":{"ha":833,"x_min":0,"x_max":0,"o":"m 722 472 b 472 708 715 604 607 708 l 361 708 b 111 458 224 708 111 597 l 111 251 b 361 0 111 114 224 0 l 472 0 b 722 251 611 0 722 114 l 722 265 l 583 265 l 583 251 b 472 140 583 190 533 140 l 361 140 b 250 251 300 140 250 190 l 250 322 l 722 322 z m 250 433 l 250 458 b 361 569 250 519 299 569 l 472 569 b 583 458 535 569 583 521 l 583 433 z m 340 833 l 493 833 l 493 972 l 340 972 z "},"è":{"ha":833,"x_min":0,"x_max":0,"o":"m 722 472 b 472 708 715 604 607 708 l 361 708 b 111 458 224 708 111 597 l 111 251 b 361 0 111 114 224 0 l 472 0 b 722 251 611 0 722 114 l 722 265 l 583 265 l 583 251 b 472 140 583 190 533 140 l 361 140 b 250 251 300 140 250 190 l 250 322 l 722 322 z m 121 1044 l 343 833 l 504 833 l 310 1044 z m 250 433 l 250 458 b 361 569 250 519 299 569 l 472 569 b 583 458 535 569 583 521 l 583 433 z "},"ē":{"ha":833,"x_min":0,"x_max":0,"o":"m 722 472 b 472 708 715 604 607 708 l 361 708 b 111 458 224 708 111 597 l 111 251 b 361 0 111 114 224 0 l 472 0 b 722 251 611 0 722 114 l 722 265 l 583 265 l 583 251 b 472 140 583 190 533 140 l 361 140 b 250 251 300 140 250 190 l 250 322 l 722 322 z m 167 833 l 667 833 l 667 972 l 167 972 z m 250 433 l 250 458 b 361 569 250 519 299 569 l 472 569 b 583 458 535 569 583 521 l 583 433 z "},"ę":{"ha":833,"x_min":0,"x_max":0,"o":"m 722 472 b 472 708 715 604 607 708 l 361 708 b 111 458 224 708 111 597 l 111 251 b 361 0 111 114 224 0 l 378 0 b 475 -292 261 -111 310 -292 l 564 -292 l 564 -153 b 531 7 504 -153 401 -133 b 722 251 640 33 722 133 l 722 265 l 583 265 l 583 251 b 472 140 583 190 533 140 l 361 140 b 250 251 300 140 250 190 l 250 322 l 722 322 z m 250 433 l 250 458 b 361 569 250 519 299 569 l 472 569 b 583 458 535 569 583 521 l 583 433 z "},"f":{"ha":833,"x_min":0,"x_max":0,"o":"m 590 986 b 340 736 451 986 340 875 l 340 667 l 111 667 l 111 528 l 340 528 l 340 0 l 479 0 l 479 528 l 722 528 l 722 667 l 479 667 l 479 736 b 590 847 479 799 528 847 l 722 847 l 722 986 z "},"g":{"ha":833,"x_min":0,"x_max":0,"o":"m 722 -40 l 722 708 l 583 708 l 583 631 l 468 708 l 361 708 b 111 458 224 708 111 597 l 111 250 b 361 0 111 113 224 0 l 468 0 l 583 78 l 583 -40 b 472 -151 583 -101 533 -151 l 361 -151 b 250 -40 300 -151 250 -101 l 111 -40 b 361 -292 111 -178 224 -292 l 472 -292 b 722 -40 611 -292 722 -178 z m 250 250 l 250 458 b 361 569 250 519 300 569 l 425 569 l 583 463 l 583 246 l 425 139 l 361 139 b 250 250 300 139 250 189 z "},"ğ":{"ha":833,"x_min":0,"x_max":0,"o":"m 722 -40 l 722 708 l 583 708 l 583 631 l 468 708 l 361 708 b 111 458 224 708 111 597 l 111 250 b 361 0 111 113 224 0 l 468 0 l 583 78 l 583 -40 b 472 -151 583 -101 533 -151 l 361 -151 b 250 -40 300 -151 250 -101 l 111 -40 b 361 -292 111 -178 224 -292 l 472 -292 b 722 -40 611 -292 722 -178 z m 203 1047 b 417 833 203 929 299 833 b 629 1047 533 833 629 929 l 629 1049 l 490 1049 l 490 1047 b 417 972 490 1006 457 972 b 342 1047 375 972 342 1006 l 342 1049 l 203 1049 z m 250 250 l 250 458 b 361 569 250 519 300 569 l 425 569 l 583 463 l 583 246 l 425 139 l 361 139 b 250 250 300 139 250 189 z "},"ģ":{"ha":833,"x_min":0,"x_max":0,"o":"m 722 -40 l 722 708 l 583 708 l 583 631 l 468 708 l 361 708 b 111 458 224 708 111 597 l 111 250 b 361 0 111 113 224 0 l 468 0 l 583 78 l 583 -40 b 472 -151 583 -101 533 -151 l 361 -151 b 250 -40 300 -151 250 -101 l 111 -40 b 361 -292 111 -178 224 -292 l 472 -292 b 722 -40 611 -292 722 -178 z m 250 250 l 250 458 b 361 569 250 519 300 569 l 425 569 l 583 463 l 583 246 l 425 139 l 361 139 b 250 250 300 139 250 189 z m 333 833 l 472 833 l 572 1125 l 511 1125 l 367 935 z "},"ġ":{"ha":833,"x_min":0,"x_max":0,"o":"m 722 -40 l 722 708 l 583 708 l 583 631 l 468 708 l 361 708 b 111 458 224 708 111 597 l 111 250 b 361 0 111 113 224 0 l 468 0 l 583 78 l 583 -40 b 472 -151 583 -101 533 -151 l 361 -151 b 250 -40 300 -151 250 -101 l 111 -40 b 361 -292 111 -178 224 -292 l 472 -292 b 722 -40 611 -292 722 -178 z m 250 250 l 250 458 b 361 569 250 519 300 569 l 425 569 l 583 463 l 583 246 l 425 139 l 361 139 b 250 250 300 139 250 189 z m 340 833 l 493 833 l 493 972 l 340 972 z "},"h":{"ha":833,"x_min":0,"x_max":0,"o":"m 111 986 l 111 0 l 250 0 l 250 463 l 408 569 l 472 569 b 583 458 533 569 583 519 l 583 0 l 722 0 l 722 458 b 472 708 722 597 610 708 l 365 708 l 250 631 l 250 986 z "},"ħ":{"ha":833,"x_min":0,"x_max":0,"o":"m 111 986 l 111 919 l 42 919 l 42 781 l 111 781 l 111 0 l 250 0 l 250 463 l 408 569 l 472 569 b 583 458 533 569 583 519 l 583 0 l 722 0 l 722 458 b 472 708 722 597 610 708 l 365 708 l 250 631 l 250 781 l 542 781 l 542 919 l 250 919 l 250 986 z "},"i":{"ha":833,"x_min":0,"x_max":0,"o":"m 479 139 l 479 708 l 111 708 l 111 569 l 340 569 l 340 139 l 111 139 l 111 0 l 722 0 l 722 139 z m 326 833 l 479 833 l 479 972 l 326 972 z "},"ı":{"ha":833,"x_min":0,"x_max":0,"o":"m 479 139 l 479 708 l 111 708 l 111 569 l 340 569 l 340 139 l 111 139 l 111 0 l 722 0 l 722 139 z "},"í":{"ha":833,"x_min":0,"x_max":0,"o":"m 479 139 l 479 708 l 111 708 l 111 569 l 340 569 l 340 139 l 111 139 l 111 0 l 722 0 l 722 139 z m 350 833 l 511 833 l 733 1044 l 544 1044 z "},"î":{"ha":833,"x_min":0,"x_max":0,"o":"m 479 139 l 479 708 l 111 708 l 111 569 l 340 569 l 340 139 l 111 139 l 111 0 l 722 0 l 722 139 z m 163 833 l 324 833 l 417 929 l 510 833 l 671 833 l 490 1044 l 343 1044 z "},"ï":{"ha":833,"x_min":0,"x_max":0,"o":"m 479 139 l 479 708 l 111 708 l 111 569 l 340 569 l 340 139 l 111 139 l 111 0 l 722 0 l 722 139 z m 215 833 l 368 833 l 368 972 l 215 972 z m 465 833 l 618 833 l 618 972 l 465 972 z "},"ì":{"ha":833,"x_min":0,"x_max":0,"o":"m 479 139 l 479 708 l 111 708 l 111 569 l 340 569 l 340 139 l 111 139 l 111 0 l 722 0 l 722 139 z m 72 1044 l 294 833 l 456 833 l 261 1044 z "},"ī":{"ha":833,"x_min":0,"x_max":0,"o":"m 479 139 l 479 708 l 111 708 l 111 569 l 340 569 l 340 139 l 111 139 l 111 0 l 722 0 l 722 139 z m 167 833 l 667 833 l 667 972 l 167 972 z "},"į":{"ha":833,"x_min":0,"x_max":0,"o":"m 479 139 l 479 708 l 111 708 l 111 569 l 340 569 l 340 139 l 111 139 l 111 0 l 378 0 b 475 -292 261 -111 310 -292 l 564 -292 l 564 -153 b 524 0 506 -153 406 -135 l 722 0 l 722 139 z m 340 833 l 493 833 l 493 972 l 340 972 z "},"j":{"ha":833,"x_min":0,"x_max":0,"o":"m 722 708 l 285 708 l 285 569 l 583 569 l 583 -40 b 472 -151 583 -101 533 -151 l 361 -151 b 250 -40 300 -151 250 -101 l 250 0 l 111 0 l 111 -40 b 361 -292 111 -178 222 -292 l 472 -292 b 722 -40 610 -292 722 -178 z m 569 833 l 722 833 l 722 972 l 569 972 z "},"k":{"ha":833,"x_min":0,"x_max":0,"o":"m 250 0 l 250 285 l 379 285 l 558 0 l 722 0 l 500 354 l 722 708 l 558 708 l 379 424 l 250 424 l 250 986 l 111 986 l 111 0 z "},"ķ":{"ha":833,"x_min":0,"x_max":0,"o":"m 250 0 l 250 285 l 379 285 l 558 0 l 722 0 l 500 354 l 722 708 l 558 708 l 379 424 l 250 424 l 250 986 l 111 986 l 111 0 z m 260 -431 l 321 -431 l 465 -240 l 499 -139 l 360 -139 z "},"l":{"ha":833,"x_min":0,"x_max":0,"o":"m 479 139 l 479 986 l 111 986 l 111 847 l 340 847 l 340 139 l 111 139 l 111 0 l 722 0 l 722 139 z "},"ĺ":{"ha":833,"x_min":0,"x_max":0,"o":"m 479 139 l 479 986 l 111 986 l 111 847 l 340 847 l 340 139 l 111 139 l 111 0 l 722 0 l 722 139 z m 329 1097 l 490 1097 l 713 1308 l 524 1308 z "},"ľ":{"ha":833,"x_min":0,"x_max":0,"o":"m 479 139 l 479 986 l 111 986 l 111 847 l 340 847 l 340 139 l 111 139 l 111 0 l 722 0 l 722 139 z m 590 846 l 618 694 l 701 694 l 729 846 l 729 986 l 590 986 z "},"ļ":{"ha":833,"x_min":0,"x_max":0,"o":"m 479 139 l 479 986 l 111 986 l 111 847 l 340 847 l 340 139 l 111 139 l 111 0 l 722 0 l 722 139 z m 260 -431 l 321 -431 l 465 -240 l 499 -139 l 360 -139 z "},"ł":{"ha":833,"x_min":0,"x_max":0,"o":"m 660 540 l 660 689 l 479 621 l 479 986 l 111 986 l 111 847 l 340 847 l 340 569 l 176 508 l 175 360 l 340 421 l 340 139 l 111 139 l 111 0 l 722 0 l 722 139 l 479 139 l 479 474 z "},"m":{"ha":833,"x_min":0,"x_max":0,"o":"m 83 708 l 83 0 l 222 0 l 222 433 l 344 550 b 347 486 347 535 347 513 l 347 0 l 486 0 l 486 433 l 608 550 b 611 486 611 535 611 513 l 611 0 l 750 0 l 750 486 b 581 708 750 639 690 708 l 569 708 l 468 610 b 317 708 442 676 390 708 l 306 708 l 222 628 l 222 708 z m 301 592 l 310 592 z m 565 592 l 574 592 z "},"n":{"ha":833,"x_min":0,"x_max":0,"o":"m 111 708 l 111 0 l 250 0 l 250 463 l 408 569 l 472 569 b 583 458 533 569 583 519 l 583 0 l 722 0 l 722 458 b 472 708 722 597 610 708 l 365 708 l 250 631 l 250 708 z "},"ń":{"ha":833,"x_min":0,"x_max":0,"o":"m 111 708 l 111 0 l 250 0 l 250 463 l 408 569 l 472 569 b 583 458 533 569 583 519 l 583 0 l 722 0 l 722 458 b 472 708 722 597 610 708 l 365 708 l 250 631 l 250 708 z m 350 833 l 511 833 l 733 1044 l 544 1044 z "},"ň":{"ha":833,"x_min":0,"x_max":0,"o":"m 111 708 l 111 0 l 250 0 l 250 463 l 408 569 l 472 569 b 583 458 533 569 583 519 l 583 0 l 722 0 l 722 458 b 472 708 722 597 610 708 l 365 708 l 250 631 l 250 708 z m 163 1044 l 343 833 l 490 833 l 671 1044 l 510 1044 l 417 949 l 324 1044 z "},"ņ":{"ha":833,"x_min":0,"x_max":0,"o":"m 111 708 l 111 0 l 250 0 l 250 463 l 408 569 l 472 569 b 583 458 533 569 583 519 l 583 0 l 722 0 l 722 458 b 472 708 722 597 610 708 l 365 708 l 250 631 l 250 708 z m 260 -431 l 321 -431 l 465 -240 l 499 -139 l 360 -139 z "},"ŋ":{"ha":833,"x_min":0,"x_max":0,"o":"m 472 -292 b 722 -42 611 -292 722 -181 l 722 458 b 472 708 722 597 610 708 l 365 708 l 250 631 l 250 708 l 111 708 l 111 0 l 250 0 l 250 463 l 408 569 l 472 569 b 583 458 533 569 583 519 l 583 -42 b 472 -153 583 -104 535 -153 l 361 -153 l 361 -292 z "},"ñ":{"ha":833,"x_min":0,"x_max":0,"o":"m 111 708 l 111 0 l 250 0 l 250 463 l 408 569 l 472 569 b 583 458 533 569 583 519 l 583 0 l 722 0 l 722 458 b 472 708 722 597 610 708 l 365 708 l 250 631 l 250 708 z m 139 860 l 269 815 b 326 861 282 849 292 860 l 478 797 b 694 938 592 793 660 838 l 564 982 b 507 936 551 949 542 938 l 356 1000 b 139 860 242 1004 174 960 z "},"o":{"ha":833,"x_min":0,"x_max":0,"o":"m 472 139 l 361 139 b 250 249 299 140 250 186 l 250 458 b 361 569 250 521 299 569 l 472 569 b 583 458 535 569 583 521 l 583 249 b 472 139 583 186 535 139 z m 111 249 b 361 0 111 110 222 0 l 472 0 b 722 249 611 0 722 110 l 722 458 b 472 708 722 597 611 708 l 361 708 b 111 458 222 708 111 597 z "},"ó":{"ha":833,"x_min":0,"x_max":0,"o":"m 472 139 l 361 139 b 250 249 299 140 250 186 l 250 458 b 361 569 250 521 299 569 l 472 569 b 583 458 535 569 583 521 l 583 249 b 472 139 583 186 535 139 z m 111 249 b 361 0 111 110 222 0 l 472 0 b 722 249 611 0 722 110 l 722 458 b 472 708 722 597 611 708 l 361 708 b 111 458 222 708 111 597 z m 329 833 l 490 833 l 713 1044 l 524 1044 z "},"ô":{"ha":833,"x_min":0,"x_max":0,"o":"m 472 139 l 361 139 b 250 249 299 140 250 186 l 250 458 b 361 569 250 521 299 569 l 472 569 b 583 458 535 569 583 521 l 583 249 b 472 139 583 186 535 139 z m 111 249 b 361 0 111 110 222 0 l 472 0 b 722 249 611 0 722 110 l 722 458 b 472 708 722 597 611 708 l 361 708 b 111 458 222 708 111 597 z m 163 833 l 324 833 l 417 929 l 510 833 l 671 833 l 490 1044 l 343 1044 z "},"ö":{"ha":833,"x_min":0,"x_max":0,"o":"m 472 139 l 361 139 b 250 249 299 140 250 186 l 250 458 b 361 569 250 521 299 569 l 472 569 b 583 458 535 569 583 521 l 583 249 b 472 139 583 186 535 139 z m 111 249 b 361 0 111 110 222 0 l 472 0 b 722 249 611 0 722 110 l 722 458 b 472 708 722 597 611 708 l 361 708 b 111 458 222 708 111 597 z m 215 833 l 368 833 l 368 972 l 215 972 z m 465 833 l 618 833 l 618 972 l 465 972 z "},"ò":{"ha":833,"x_min":0,"x_max":0,"o":"m 472 139 l 361 139 b 250 249 299 140 250 186 l 250 458 b 361 569 250 521 299 569 l 472 569 b 583 458 535 569 583 521 l 583 249 b 472 139 583 186 535 139 z m 111 249 b 361 0 111 110 222 0 l 472 0 b 722 249 611 0 722 110 l 722 458 b 472 708 722 597 611 708 l 361 708 b 111 458 222 708 111 597 z m 121 1044 l 343 833 l 504 833 l 310 1044 z "},"ő":{"ha":833,"x_min":0,"x_max":0,"o":"m 472 139 l 361 139 b 250 249 299 140 250 186 l 250 458 b 361 569 250 521 299 569 l 472 569 b 583 458 535 569 583 521 l 583 249 b 472 139 583 186 535 139 z m 111 249 b 361 0 111 110 222 0 l 472 0 b 722 249 611 0 722 110 l 722 458 b 472 708 722 597 611 708 l 361 708 b 111 458 222 708 111 597 z m 190 833 l 351 833 l 574 1044 l 385 1044 z m 468 833 l 629 833 l 851 1044 l 663 1044 z "},"ō":{"ha":833,"x_min":0,"x_max":0,"o":"m 472 139 l 361 139 b 250 249 299 140 250 186 l 250 458 b 361 569 250 521 299 569 l 472 569 b 583 458 535 569 583 521 l 583 249 b 472 139 583 186 535 139 z m 111 249 b 361 0 111 110 222 0 l 472 0 b 722 249 611 0 722 110 l 722 458 b 472 708 722 597 611 708 l 361 708 b 111 458 222 708 111 597 z m 167 833 l 667 833 l 667 972 l 167 972 z "},"ø":{"ha":833,"x_min":0,"x_max":0,"o":"m 472 139 l 411 139 l 557 531 b 583 458 574 511 583 486 l 583 249 b 472 139 583 186 535 139 z m 111 249 b 225 39 111 160 157 83 l 161 -132 l 310 -132 l 360 0 l 361 0 l 472 0 b 722 249 611 0 722 110 l 722 458 b 610 668 722 547 678 624 l 674 840 l 525 840 l 475 708 l 472 708 l 361 708 b 111 458 222 708 111 597 z m 250 249 l 250 458 b 361 569 250 521 299 569 l 424 569 l 276 176 b 250 249 260 196 250 221 z "},"õ":{"ha":833,"x_min":0,"x_max":0,"o":"m 472 139 l 361 139 b 250 249 299 140 250 186 l 250 458 b 361 569 250 521 299 569 l 472 569 b 583 458 535 569 583 521 l 583 249 b 472 139 583 186 535 139 z m 111 249 b 361 0 111 110 222 0 l 472 0 b 722 249 611 0 722 110 l 722 458 b 472 708 722 597 611 708 l 361 708 b 111 458 222 708 111 597 z m 139 860 l 269 815 b 326 861 282 849 292 860 l 478 797 b 694 938 592 793 660 838 l 564 982 b 507 936 551 949 542 938 l 356 1000 b 139 860 242 1004 174 960 z "},"œ":{"ha":833,"x_min":0,"x_max":0,"o":"m 257 140 b 167 251 196 140 167 190 l 167 458 b 257 569 167 519 194 569 b 347 458 319 569 347 521 l 347 251 b 257 140 347 190 318 140 z m 28 251 b 257 0 28 118 115 0 b 417 67 322 0 378 25 b 576 0 456 26 510 0 b 806 251 715 0 806 114 l 667 251 b 576 140 667 190 638 140 b 486 251 515 140 486 190 l 486 322 l 806 322 l 806 458 b 576 708 806 593 719 708 b 417 643 511 708 457 683 b 257 708 378 683 324 708 b 28 458 119 708 28 597 z m 486 433 l 486 458 b 576 569 486 519 514 569 b 667 458 639 569 667 521 l 667 433 z "},"p":{"ha":833,"x_min":0,"x_max":0,"o":"m 111 -292 l 250 -292 l 250 78 l 365 0 l 472 0 b 722 250 610 0 722 111 l 722 458 b 472 708 722 596 610 708 l 365 708 l 250 631 l 250 708 l 111 708 z m 250 246 l 250 463 l 408 569 l 472 569 b 583 458 533 569 583 519 l 583 250 b 472 139 583 189 533 139 l 408 139 z "},"þ":{"ha":833,"x_min":0,"x_max":0,"o":"m 111 -292 l 250 -292 l 250 78 l 365 0 l 472 0 b 722 250 610 0 722 111 l 722 458 b 472 708 722 596 610 708 l 365 708 l 250 631 l 250 986 l 111 986 z m 250 246 l 250 463 l 408 569 l 472 569 b 583 458 533 569 583 519 l 583 250 b 472 139 583 189 533 139 l 408 139 z "},"q":{"ha":833,"x_min":0,"x_max":0,"o":"m 722 -292 l 722 708 l 583 708 l 583 631 l 468 708 l 361 708 b 111 458 224 708 111 596 l 111 250 b 361 0 111 111 224 0 l 468 0 l 583 78 l 583 -292 z m 250 250 l 250 458 b 361 569 250 519 300 569 l 425 569 l 583 463 l 583 246 l 425 139 l 361 139 b 250 250 300 139 250 189 z "},"r":{"ha":833,"x_min":0,"x_max":0,"o":"m 111 708 l 111 0 l 250 0 l 250 429 l 458 569 l 472 569 b 583 458 533 569 583 519 l 583 403 l 722 403 l 722 458 b 472 708 722 597 610 708 l 415 708 l 250 597 l 250 708 z "},"ŕ":{"ha":833,"x_min":0,"x_max":0,"o":"m 111 708 l 111 0 l 250 0 l 250 429 l 458 569 l 472 569 b 583 458 533 569 583 519 l 583 403 l 722 403 l 722 458 b 472 708 722 597 610 708 l 415 708 l 250 597 l 250 708 z m 350 833 l 511 833 l 733 1044 l 544 1044 z "},"ř":{"ha":833,"x_min":0,"x_max":0,"o":"m 111 708 l 111 0 l 250 0 l 250 429 l 458 569 l 472 569 b 583 458 533 569 583 519 l 583 403 l 722 403 l 722 458 b 472 708 722 597 610 708 l 415 708 l 250 597 l 250 708 z m 163 1044 l 343 833 l 490 833 l 671 1044 l 510 1044 l 417 949 l 324 1044 z "},"ŗ":{"ha":833,"x_min":0,"x_max":0,"o":"m 111 708 l 111 0 l 250 0 l 250 429 l 458 569 l 472 569 b 583 458 533 569 583 519 l 583 403 l 722 403 l 722 458 b 472 708 722 597 610 708 l 415 708 l 250 597 l 250 708 z m 24 -431 l 85 -431 l 229 -240 l 263 -139 l 124 -139 z "},"s":{"ha":833,"x_min":0,"x_max":0,"o":"m 111 233 l 111 206 b 346 0 111 88 211 0 l 486 0 b 722 196 626 0 722 79 b 260 521 722 479 260 408 b 343 569 260 550 285 569 l 476 569 b 560 501 525 569 560 540 l 560 489 l 699 489 l 699 501 b 476 708 699 618 601 708 l 343 708 b 121 521 211 708 121 633 b 583 196 121 251 583 353 b 486 139 583 161 551 139 l 346 139 b 250 206 286 139 250 167 l 250 233 z "},"ś":{"ha":833,"x_min":0,"x_max":0,"o":"m 111 233 l 111 206 b 346 0 111 88 211 0 l 486 0 b 722 196 626 0 722 79 b 260 521 722 479 260 408 b 343 569 260 550 285 569 l 476 569 b 560 501 525 569 560 540 l 560 489 l 699 489 l 699 501 b 476 708 699 618 601 708 l 343 708 b 121 521 211 708 121 633 b 583 196 121 251 583 353 b 486 139 583 161 551 139 l 346 139 b 250 206 286 139 250 167 l 250 233 z m 350 833 l 511 833 l 733 1044 l 544 1044 z "},"š":{"ha":833,"x_min":0,"x_max":0,"o":"m 111 233 l 111 206 b 346 0 111 88 211 0 l 486 0 b 722 196 626 0 722 79 b 260 521 722 479 260 408 b 343 569 260 550 285 569 l 476 569 b 560 501 525 569 560 540 l 560 489 l 699 489 l 699 501 b 476 708 699 618 601 708 l 343 708 b 121 521 211 708 121 633 b 583 196 121 251 583 353 b 486 139 583 161 551 139 l 346 139 b 250 206 286 139 250 167 l 250 233 z m 163 1044 l 343 833 l 490 833 l 671 1044 l 510 1044 l 417 949 l 324 1044 z "},"ş":{"ha":833,"x_min":0,"x_max":0,"o":"m 111 233 l 111 206 b 346 0 111 88 211 0 l 349 0 l 329 -60 l 389 -172 l 494 -172 b 531 -212 514 -172 531 -190 b 494 -250 531 -232 513 -250 l 336 -250 l 336 -389 l 494 -389 b 669 -212 590 -389 669 -308 b 494 -33 669 -114 590 -33 l 482 -33 l 488 0 b 722 196 626 0 722 79 b 260 521 722 479 260 408 b 343 569 260 550 285 569 l 476 569 b 560 501 525 569 560 540 l 560 489 l 699 489 l 699 501 b 476 708 699 618 601 708 l 343 708 b 121 521 211 708 121 633 b 583 196 121 251 583 353 b 486 139 583 161 551 139 l 346 139 b 250 206 286 139 250 167 l 250 233 z "},"ș":{"ha":833,"x_min":0,"x_max":0,"o":"m 111 233 l 111 206 b 346 0 111 88 211 0 l 486 0 b 722 196 626 0 722 79 b 260 521 722 479 260 408 b 343 569 260 550 285 569 l 476 569 b 560 501 525 569 560 540 l 560 489 l 699 489 l 699 501 b 476 708 699 618 601 708 l 343 708 b 121 521 211 708 121 633 b 583 196 121 251 583 353 b 486 139 583 161 551 139 l 346 139 b 250 206 286 139 250 167 l 250 233 z m 260 -431 l 321 -431 l 465 -240 l 499 -139 l 360 -139 z "},"ß":{"ha":833,"x_min":0,"x_max":0,"o":"m 653 667 l 653 722 b 403 972 653 861 542 972 l 361 972 b 111 722 224 972 111 861 l 111 0 l 250 0 l 250 722 b 361 833 250 783 300 833 l 403 833 b 514 722 465 833 514 785 l 514 667 b 403 556 514 604 465 556 l 361 556 l 361 417 l 472 417 b 583 306 535 417 583 368 l 583 250 b 472 139 583 188 535 139 l 361 139 l 361 0 l 472 0 b 722 250 611 0 722 111 l 722 306 b 604 518 722 396 675 474 b 653 667 635 560 653 611 z "},"t":{"ha":833,"x_min":0,"x_max":0,"o":"m 576 0 l 722 0 l 722 139 l 576 139 b 465 250 514 139 465 188 l 465 569 l 722 569 l 722 708 l 465 708 l 465 889 l 326 889 l 326 708 l 111 708 l 111 569 l 326 569 l 326 250 b 576 0 326 111 438 0 z "},"ŧ":{"ha":833,"x_min":0,"x_max":0,"o":"m 576 0 l 722 0 l 722 139 l 576 139 b 465 250 514 139 465 188 l 465 301 l 667 301 l 667 440 l 465 440 l 465 569 l 722 569 l 722 708 l 465 708 l 465 889 l 326 889 l 326 708 l 111 708 l 111 569 l 326 569 l 326 440 l 167 440 l 167 301 l 326 301 l 326 250 b 576 0 326 111 438 0 z "},"ť":{"ha":833,"x_min":0,"x_max":0,"o":"m 576 0 l 722 0 l 722 139 l 576 139 b 465 250 514 139 465 188 l 465 569 l 722 569 l 722 708 l 465 708 l 465 889 l 326 889 l 326 708 l 111 708 l 111 569 l 326 569 l 326 250 b 576 0 326 111 438 0 z m 572 957 l 600 806 l 683 806 l 711 957 l 711 1097 l 572 1097 z "},"ţ":{"ha":833,"x_min":0,"x_max":0,"o":"m 111 569 l 326 569 l 326 250 b 457 31 326 154 379 72 l 457 0 l 438 -60 l 497 -172 l 603 -172 b 639 -212 622 -172 639 -190 b 603 -250 639 -232 621 -250 l 444 -250 l 444 -389 l 603 -389 b 778 -212 699 -389 778 -308 b 603 -33 778 -114 699 -33 l 590 -33 l 596 0 l 722 0 l 722 139 l 576 139 b 465 250 514 139 465 188 l 465 569 l 722 569 l 722 708 l 465 708 l 465 889 l 326 889 l 326 708 l 111 708 z "},"ț":{"ha":833,"x_min":0,"x_max":0,"o":"m 576 0 l 722 0 l 722 139 l 576 139 b 465 250 514 139 465 188 l 465 569 l 722 569 l 722 708 l 465 708 l 465 889 l 326 889 l 326 708 l 111 708 l 111 569 l 326 569 l 326 250 b 576 0 326 111 438 0 z m 368 -431 l 429 -431 l 574 -240 l 607 -139 l 468 -139 z "},"u":{"ha":833,"x_min":0,"x_max":0,"o":"m 722 0 l 722 708 l 583 708 l 583 246 l 425 139 l 361 139 b 250 250 300 139 250 189 l 250 708 l 111 708 l 111 250 b 361 0 111 111 224 0 l 468 0 l 583 78 l 583 0 z "},"ú":{"ha":833,"x_min":0,"x_max":0,"o":"m 722 0 l 722 708 l 583 708 l 583 246 l 425 139 l 361 139 b 250 250 300 139 250 189 l 250 708 l 111 708 l 111 250 b 361 0 111 111 224 0 l 468 0 l 583 78 l 583 0 z m 329 833 l 490 833 l 713 1044 l 524 1044 z "},"û":{"ha":833,"x_min":0,"x_max":0,"o":"m 722 0 l 722 708 l 583 708 l 583 246 l 425 139 l 361 139 b 250 250 300 139 250 189 l 250 708 l 111 708 l 111 250 b 361 0 111 111 224 0 l 468 0 l 583 78 l 583 0 z m 163 833 l 324 833 l 417 929 l 510 833 l 671 833 l 490 1044 l 343 1044 z "},"ü":{"ha":833,"x_min":0,"x_max":0,"o":"m 722 0 l 722 708 l 583 708 l 583 246 l 425 139 l 361 139 b 250 250 300 139 250 189 l 250 708 l 111 708 l 111 250 b 361 0 111 111 224 0 l 468 0 l 583 78 l 583 0 z m 215 833 l 368 833 l 368 972 l 215 972 z m 465 833 l 618 833 l 618 972 l 465 972 z "},"ù":{"ha":833,"x_min":0,"x_max":0,"o":"m 722 0 l 722 708 l 583 708 l 583 246 l 425 139 l 361 139 b 250 250 300 139 250 189 l 250 708 l 111 708 l 111 250 b 361 0 111 111 224 0 l 468 0 l 583 78 l 583 0 z m 121 1044 l 343 833 l 504 833 l 310 1044 z "},"ű":{"ha":833,"x_min":0,"x_max":0,"o":"m 722 0 l 722 708 l 583 708 l 583 246 l 425 139 l 361 139 b 250 250 300 139 250 189 l 250 708 l 111 708 l 111 250 b 361 0 111 111 224 0 l 468 0 l 583 78 l 583 0 z m 190 833 l 351 833 l 574 1044 l 385 1044 z m 468 833 l 629 833 l 851 1044 l 663 1044 z "},"ū":{"ha":833,"x_min":0,"x_max":0,"o":"m 722 0 l 722 708 l 583 708 l 583 246 l 425 139 l 361 139 b 250 250 300 139 250 189 l 250 708 l 111 708 l 111 250 b 361 0 111 111 224 0 l 468 0 l 583 78 l 583 0 z m 167 833 l 667 833 l 667 972 l 167 972 z "},"ų":{"ha":833,"x_min":0,"x_max":0,"o":"m 722 0 l 722 708 l 583 708 l 583 246 l 425 139 l 361 139 b 250 250 300 139 250 189 l 250 708 l 111 708 l 111 250 b 361 0 111 111 224 0 l 468 0 l 583 78 l 583 0 b 650 -317 429 -107 472 -317 l 739 -317 l 739 -178 b 722 0 676 -178 568 -157 z "},"ů":{"ha":833,"x_min":0,"x_max":0,"o":"m 722 0 l 722 708 l 583 708 l 583 246 l 425 139 l 361 139 b 250 250 300 139 250 189 l 250 708 l 111 708 l 111 250 b 361 0 111 111 224 0 l 468 0 l 583 78 l 583 0 z m 240 1008 b 417 833 240 911 318 833 b 592 1008 513 833 592 913 b 417 1183 592 1106 513 1183 b 240 1008 318 1183 240 1106 z m 379 1008 b 417 1044 379 1029 394 1044 b 453 1008 436 1044 453 1029 b 417 972 453 989 436 972 b 379 1008 394 972 379 989 z "},"v":{"ha":833,"x_min":0,"x_max":0,"o":"m 583 708 l 583 428 l 418 156 l 415 156 l 250 428 l 250 708 l 111 708 l 111 389 l 347 0 l 486 0 l 722 389 l 722 708 z "},"w":{"ha":833,"x_min":0,"x_max":0,"o":"m 474 583 l 360 583 l 275 263 l 250 431 l 250 708 l 111 708 l 111 389 l 194 0 l 306 0 l 417 332 l 528 0 l 639 0 l 722 389 l 722 708 l 583 708 l 583 431 l 558 263 z "},"ẃ":{"ha":833,"x_min":0,"x_max":0,"o":"m 474 583 l 360 583 l 275 263 l 250 431 l 250 708 l 111 708 l 111 389 l 194 0 l 306 0 l 417 332 l 528 0 l 639 0 l 722 389 l 722 708 l 583 708 l 583 431 l 558 263 z m 329 833 l 490 833 l 713 1044 l 524 1044 z "},"ŵ":{"ha":833,"x_min":0,"x_max":0,"o":"m 474 583 l 360 583 l 275 263 l 250 431 l 250 708 l 111 708 l 111 389 l 194 0 l 306 0 l 417 332 l 528 0 l 639 0 l 722 389 l 722 708 l 583 708 l 583 431 l 558 263 z m 163 833 l 324 833 l 417 929 l 510 833 l 671 833 l 490 1044 l 343 1044 z "},"ẅ":{"ha":833,"x_min":0,"x_max":0,"o":"m 474 583 l 360 583 l 275 263 l 250 431 l 250 708 l 111 708 l 111 389 l 194 0 l 306 0 l 417 332 l 528 0 l 639 0 l 722 389 l 722 708 l 583 708 l 583 431 l 558 263 z m 215 833 l 368 833 l 368 972 l 215 972 z m 465 833 l 618 833 l 618 972 l 465 972 z "},"ẁ":{"ha":833,"x_min":0,"x_max":0,"o":"m 474 583 l 360 583 l 275 263 l 250 431 l 250 708 l 111 708 l 111 389 l 194 0 l 306 0 l 417 332 l 528 0 l 639 0 l 722 389 l 722 708 l 583 708 l 583 431 l 558 263 z m 121 1044 l 343 833 l 504 833 l 310 1044 z "},"x":{"ha":833,"x_min":0,"x_max":0,"o":"m 722 0 l 499 354 l 722 708 l 558 708 l 417 483 l 275 708 l 111 708 l 335 354 l 111 0 l 275 0 l 417 225 l 558 0 z "},"y":{"ha":833,"x_min":0,"x_max":0,"o":"m 356 -292 l 722 708 l 574 708 l 410 263 l 258 708 l 111 708 l 335 56 l 207 -292 z "},"ý":{"ha":833,"x_min":0,"x_max":0,"o":"m 356 -292 l 722 708 l 574 708 l 410 263 l 258 708 l 111 708 l 335 56 l 207 -292 z m 329 833 l 490 833 l 713 1044 l 524 1044 z "},"ŷ":{"ha":833,"x_min":0,"x_max":0,"o":"m 356 -292 l 722 708 l 574 708 l 410 263 l 258 708 l 111 708 l 335 56 l 207 -292 z m 163 833 l 324 833 l 417 929 l 510 833 l 671 833 l 490 1044 l 343 1044 z "},"ÿ":{"ha":833,"x_min":0,"x_max":0,"o":"m 356 -292 l 722 708 l 574 708 l 410 263 l 258 708 l 111 708 l 335 56 l 207 -292 z m 215 833 l 368 833 l 368 972 l 215 972 z m 465 833 l 618 833 l 618 972 l 465 972 z "},"ỳ":{"ha":833,"x_min":0,"x_max":0,"o":"m 356 -292 l 722 708 l 574 708 l 410 263 l 258 708 l 111 708 l 335 56 l 207 -292 z m 121 1044 l 343 833 l 504 833 l 310 1044 z "},"z":{"ha":833,"x_min":0,"x_max":0,"o":"m 111 708 l 111 569 l 529 569 l 111 139 l 111 0 l 722 0 l 722 139 l 304 139 l 722 569 l 722 708 z "},"ź":{"ha":833,"x_min":0,"x_max":0,"o":"m 111 708 l 111 569 l 529 569 l 111 139 l 111 0 l 722 0 l 722 139 l 304 139 l 722 569 l 722 708 z m 350 833 l 511 833 l 733 1044 l 544 1044 z "},"ž":{"ha":833,"x_min":0,"x_max":0,"o":"m 111 708 l 111 569 l 529 569 l 111 139 l 111 0 l 722 0 l 722 139 l 304 139 l 722 569 l 722 708 z m 163 1044 l 343 833 l 490 833 l 671 1044 l 510 1044 l 417 949 l 324 1044 z "},"ż":{"ha":833,"x_min":0,"x_max":0,"o":"m 111 708 l 111 569 l 529 569 l 111 139 l 111 0 l 722 0 l 722 139 l 304 139 l 722 569 l 722 708 z m 340 833 l 493 833 l 493 972 l 340 972 z "},"⁄":{"ha":833,"x_min":0,"x_max":0,"o":"m 250 0 l 250 172 l 722 750 l 722 972 l 583 972 l 583 800 l 111 222 l 111 0 z "},"*":{"ha":833,"x_min":0,"x_max":0,"o":"m 347 986 l 347 931 l 383 821 l 307 907 l 258 935 l 189 815 l 238 788 l 350 764 l 238 740 l 189 713 l 258 593 l 307 621 l 383 707 l 347 597 l 347 542 l 486 542 l 486 597 l 450 707 l 526 621 l 575 593 l 644 713 l 596 740 l 483 764 l 596 788 l 644 815 l 575 935 l 526 907 l 450 821 l 486 931 l 486 986 z "},"\\":{"ha":833,"x_min":0,"x_max":0,"o":"m 583 0 l 722 0 l 722 222 l 250 800 l 250 972 l 111 972 l 111 750 l 583 172 z "},"·":{"ha":833,"x_min":0,"x_max":0,"o":"m 340 528 l 340 389 l 493 389 l 493 528 z "},"•":{"ha":833,"x_min":0,"x_max":0,"o":"m 299 528 l 299 333 l 438 333 l 535 375 l 535 486 l 438 528 z "},":":{"ha":833,"x_min":0,"x_max":0,"o":"m 340 528 l 340 389 l 493 389 l 493 528 z m 340 0 l 493 0 l 493 139 l 340 139 z "},",":{"ha":833,"x_min":0,"x_max":0,"o":"m 344 -153 l 489 38 l 522 139 l 383 139 l 283 -153 z "},"…":{"ha":833,"x_min":0,"x_max":0,"o":"m 340 139 l 340 0 l 493 0 l 493 139 z m 111 0 l 264 0 l 264 139 l 111 139 z m 569 0 l 722 0 l 722 139 l 569 139 z "},"!":{"ha":833,"x_min":0,"x_max":0,"o":"m 347 972 l 347 461 l 375 310 l 458 310 l 486 461 l 486 972 z m 340 0 l 493 0 l 493 139 l 340 139 z "},"¡":{"ha":833,"x_min":0,"x_max":0,"o":"m 347 -264 l 486 -264 l 486 247 l 458 399 l 375 399 l 347 247 z m 340 569 l 493 569 l 493 708 l 340 708 z "},"#":{"ha":833,"x_min":0,"x_max":0,"o":"m 306 0 l 343 264 l 429 264 l 393 0 l 532 0 l 569 264 l 681 264 l 694 403 l 589 403 l 613 569 l 708 569 l 722 708 l 632 708 l 669 972 l 528 972 l 492 708 l 406 708 l 443 972 l 301 972 l 265 708 l 153 708 l 139 569 l 246 569 l 222 403 l 125 403 l 111 264 l 203 264 l 167 0 z m 363 403 l 386 569 l 472 569 l 449 403 z "},".":{"ha":833,"x_min":0,"x_max":0,"o":"m 340 139 l 340 0 l 493 0 l 493 139 z "},"?":{"ha":833,"x_min":0,"x_max":0,"o":"m 347 310 l 486 310 l 486 397 l 722 546 l 722 722 b 472 972 722 861 611 972 l 361 972 b 111 722 224 972 111 861 l 111 674 l 250 674 l 250 722 b 361 833 250 783 300 833 l 472 833 b 583 722 535 833 583 785 l 583 622 l 347 474 z m 340 0 l 493 0 l 493 139 l 340 139 z "},"¿":{"ha":833,"x_min":0,"x_max":0,"o":"m 486 399 l 347 399 l 347 311 l 111 163 l 111 -14 b 361 -264 111 -153 222 -264 l 472 -264 b 722 -14 610 -264 722 -153 l 722 35 l 583 35 l 583 -14 b 472 -125 583 -75 533 -125 l 361 -125 b 250 -14 299 -125 250 -76 l 250 86 l 486 235 z m 340 569 l 493 569 l 493 708 l 340 708 z "},"\"":{"ha":833,"x_min":0,"x_max":0,"o":"m 458 986 l 458 846 l 486 694 l 569 694 l 597 846 l 597 986 z m 236 846 l 264 694 l 347 694 l 375 846 l 375 986 l 236 986 z "},"'":{"ha":833,"x_min":0,"x_max":0,"o":"m 347 986 l 347 846 l 375 694 l 458 694 l 486 846 l 486 986 z "},";":{"ha":833,"x_min":0,"x_max":0,"o":"m 354 -153 l 499 38 l 532 139 l 393 139 l 293 -153 z m 386 389 l 539 389 l 539 528 l 386 528 z "},"/":{"ha":833,"x_min":0,"x_max":0,"o":"m 250 0 l 250 172 l 722 750 l 722 972 l 583 972 l 583 800 l 111 222 l 111 0 z "},"_":{"ha":833,"x_min":0,"x_max":0,"o":"m 14 -46 l 819 -46 l 819 -185 l 14 -185 z "},"{":{"ha":833,"x_min":0,"x_max":0,"o":"m 222 556 l 222 417 b 333 306 285 417 333 368 l 333 111 b 583 -139 333 -28 444 -139 l 611 -139 l 611 0 l 583 0 b 472 111 521 0 472 49 l 472 306 b 396 486 472 376 443 440 b 472 667 443 532 472 596 l 472 861 b 583 972 472 924 521 972 l 611 972 l 611 1111 l 583 1111 b 333 861 444 1111 333 1000 l 333 667 b 222 556 333 604 285 556 z "},"}":{"ha":889,"x_min":0,"x_max":0,"o":"m 639 417 l 639 556 b 528 667 576 556 528 604 l 528 861 b 278 1111 528 1000 417 1111 l 250 1111 l 250 972 l 278 972 b 389 861 340 972 389 924 l 389 667 b 465 486 389 596 418 532 b 389 306 418 440 389 376 l 389 111 b 278 0 389 49 340 0 l 250 0 l 250 -139 l 278 -139 b 528 111 417 -139 528 -28 l 528 306 b 639 417 528 368 576 417 z "},"[":{"ha":833,"x_min":0,"x_max":0,"o":"m 222 1111 l 222 -139 l 611 -139 l 611 0 l 361 0 l 361 972 l 611 972 l 611 1111 z "},"]":{"ha":833,"x_min":0,"x_max":0,"o":"m 611 1111 l 222 1111 l 222 972 l 472 972 l 472 0 l 222 0 l 222 -139 l 611 -139 z "},"(":{"ha":833,"x_min":0,"x_max":0,"o":"m 472 -140 l 611 -140 l 611 0 l 472 0 b 361 111 411 0 361 50 l 361 861 b 472 972 361 922 410 972 l 611 972 l 611 1111 l 472 1111 b 222 861 335 1111 222 1000 l 222 111 b 472 -140 222 -26 335 -140 z "},")":{"ha":833,"x_min":0,"x_max":0,"o":"m 361 -140 b 611 111 499 -140 611 -26 l 611 861 b 361 1111 611 1000 499 1111 l 222 1111 l 222 972 l 361 972 b 472 861 424 972 472 922 l 472 111 b 361 0 472 50 422 0 l 222 0 l 222 -140 z "},"—":{"ha":833,"x_min":0,"x_max":0,"o":"m 14 440 l 819 440 l 819 301 l 14 301 z "},"–":{"ha":833,"x_min":0,"x_max":0,"o":"m 83 440 l 83 301 l 750 301 l 750 440 z "},"-":{"ha":833,"x_min":0,"x_max":0,"o":"m 167 440 l 167 301 l 667 301 l 667 440 z "},"«":{"ha":833,"x_min":0,"x_max":0,"o":"m 750 103 l 750 242 l 722 242 l 592 353 l 592 356 l 722 467 l 750 467 l 750 606 l 671 606 l 457 424 l 457 285 l 671 103 z m 83 285 l 361 49 l 486 49 l 486 188 l 413 188 l 218 353 l 218 356 l 413 521 l 486 521 l 486 660 l 361 660 l 83 424 z "},"»":{"ha":833,"x_min":0,"x_max":0,"o":"m 83 103 l 163 103 l 376 285 l 376 424 l 163 606 l 83 606 l 83 467 l 111 467 l 242 356 l 242 353 l 111 242 l 83 242 z m 347 49 l 472 49 l 750 285 l 750 424 l 472 660 l 347 660 l 347 521 l 421 521 l 615 356 l 615 353 l 421 188 l 347 188 z "},"‹":{"ha":833,"x_min":0,"x_max":0,"o":"m 618 188 l 544 188 l 350 353 l 350 356 l 544 521 l 618 521 l 618 660 l 493 660 l 215 424 l 215 285 l 493 49 l 618 49 z "},"›":{"ha":833,"x_min":0,"x_max":0,"o":"m 215 188 l 215 49 l 340 49 l 618 285 l 618 424 l 340 660 l 215 660 l 215 521 l 289 521 l 483 356 l 483 353 l 289 188 z "},"„":{"ha":833,"x_min":0,"x_max":0,"o":"m 344 -153 l 489 38 l 522 139 l 383 139 l 283 -153 z "},"“":{"ha":833,"x_min":0,"x_max":0,"o":"m 378 988 l 233 797 l 200 696 l 339 696 l 439 988 z m 435 696 l 574 696 l 674 988 l 613 988 l 468 797 z "},"”":{"ha":833,"x_min":0,"x_max":0,"o":"m 454 694 l 599 885 l 632 986 l 493 986 l 393 694 z m 158 694 l 219 694 l 364 885 l 397 986 l 258 986 z "},"‘":{"ha":833,"x_min":0,"x_max":0,"o":"m 489 988 l 344 797 l 311 696 l 450 696 l 550 988 z "},"’":{"ha":833,"x_min":0,"x_max":0,"o":"m 344 694 l 489 885 l 522 986 l 383 986 l 283 694 z "},"‚":{"ha":833,"x_min":0,"x_max":0,"o":"m 344 -153 l 489 38 l 522 139 l 383 139 l 283 -153 z "},"¢":{"ha":833,"x_min":0,"x_max":0,"o":"m 347 847 l 347 708 b 111 458 217 701 111 593 l 111 251 b 347 0 111 118 217 8 l 347 -139 l 486 -139 l 486 0 b 722 251 618 8 722 118 l 722 265 l 583 265 l 583 251 b 486 142 583 194 540 149 l 486 568 b 583 458 542 563 583 517 l 583 444 l 722 444 l 722 458 b 486 708 722 593 618 701 l 486 847 z m 250 251 l 250 458 b 347 568 250 515 292 563 l 347 142 b 250 251 293 149 250 194 z "},"¤":{"ha":833,"x_min":0,"x_max":0,"o":"m 358 354 b 358 471 326 386 326 439 b 475 471 390 503 443 503 b 475 354 507 439 507 386 b 358 354 443 322 390 322 z m 143 236 l 240 139 l 318 215 b 515 215 379 183 454 183 l 593 139 l 690 236 l 614 314 b 614 511 646 375 646 450 l 690 589 l 593 686 l 515 610 b 318 610 454 642 379 642 l 240 686 l 143 589 l 219 511 b 219 314 188 450 188 375 z "},"$":{"ha":833,"x_min":0,"x_max":0,"o":"m 347 1111 l 347 971 b 125 742 215 957 125 867 b 347 469 125 613 235 536 l 347 142 b 250 258 292 151 250 200 l 250 314 l 111 314 l 111 258 b 347 1 111 122 215 13 l 347 -139 l 486 -139 l 486 1 b 722 244 622 11 722 113 b 486 551 722 394 603 482 l 486 828 b 569 714 535 813 569 768 l 569 672 l 708 672 l 708 714 b 486 969 708 844 611 951 l 486 1111 z m 264 742 b 347 831 264 789 294 821 l 347 635 b 264 742 297 668 264 701 z m 486 140 l 486 385 b 583 244 543 344 583 301 b 486 140 583 190 544 150 z "},"€":{"ha":833,"x_min":0,"x_max":0,"o":"m 583 722 l 583 708 l 722 708 l 722 722 b 472 972 722 861 611 972 l 444 972 b 194 722 307 972 194 861 l 194 606 l 111 606 l 111 467 l 194 467 l 194 411 l 111 411 l 111 272 l 194 272 l 194 251 b 444 0 194 114 307 0 l 472 0 b 722 251 611 0 722 114 l 722 265 l 583 265 l 583 251 b 472 140 583 190 533 140 l 444 140 b 333 251 383 140 333 190 l 333 272 l 521 272 l 521 411 l 333 411 l 333 467 l 521 467 l 521 606 l 333 606 l 333 722 b 444 833 333 783 382 833 l 472 833 b 583 722 535 833 583 785 z "},"£":{"ha":833,"x_min":0,"x_max":0,"o":"m 194 139 l 111 139 l 111 0 l 722 0 l 722 139 l 419 139 b 444 250 435 172 444 210 l 444 335 l 646 335 l 646 474 l 444 474 l 444 722 b 556 833 444 785 493 833 l 722 833 l 722 972 l 556 972 b 306 722 417 972 306 861 l 306 474 l 153 474 l 153 335 l 306 335 l 306 250 b 194 139 306 188 257 139 z "},"¥":{"ha":833,"x_min":0,"x_max":0,"o":"m 171 439 l 171 300 l 347 300 l 347 231 l 171 231 l 171 92 l 347 92 l 347 0 l 486 0 l 486 92 l 664 92 l 664 231 l 486 231 l 486 300 l 664 300 l 664 439 l 557 439 l 722 656 l 722 972 l 583 972 l 583 703 l 417 485 l 414 485 l 250 689 l 250 972 l 111 972 l 111 639 l 272 439 z "},"≈":{"ha":833,"x_min":0,"x_max":0,"o":"m 108 194 l 239 150 b 296 196 251 183 261 194 l 447 132 b 664 272 561 128 629 172 l 533 317 b 476 271 521 283 511 272 l 325 335 b 108 194 211 339 143 294 z m 108 485 l 239 440 b 296 486 251 474 261 485 l 447 422 b 664 563 561 418 629 463 l 533 607 b 476 561 521 574 511 563 l 325 625 b 108 485 211 629 143 585 z "},"~":{"ha":833,"x_min":0,"x_max":0,"o":"m 108 360 l 239 315 b 296 361 251 349 261 360 l 447 297 b 664 438 561 293 629 338 l 533 482 b 476 436 521 449 511 438 l 325 500 b 108 360 211 504 143 460 z "},"÷":{"ha":833,"x_min":0,"x_max":0,"o":"m 167 440 l 167 301 l 667 301 l 667 440 z m 340 79 l 493 79 l 493 218 l 340 218 z m 340 524 l 493 524 l 493 663 l 340 663 z "},"∅":{"ha":833,"x_min":0,"x_max":0,"o":"m 417 56 b 715 356 582 56 715 190 b 583 601 715 458 663 549 l 624 708 l 475 708 l 453 650 b 417 653 442 651 429 653 b 118 356 253 653 118 519 b 250 107 118 253 171 161 l 210 0 l 358 0 l 381 58 b 417 56 392 57 404 56 z m 257 356 b 401 514 257 436 321 506 l 301 244 b 257 356 274 274 257 313 z m 432 194 l 532 464 b 576 356 560 436 576 397 b 432 194 576 272 513 203 z "},"=":{"ha":833,"x_min":0,"x_max":0,"o":"m 167 588 l 167 449 l 667 449 l 667 588 z m 167 183 l 667 183 l 667 322 l 167 322 z "},">":{"ha":833,"x_min":0,"x_max":0,"o":"m 215 188 l 215 49 l 340 49 l 618 285 l 618 424 l 340 660 l 215 660 l 215 521 l 289 521 l 483 356 l 483 353 l 289 188 z "},"≥":{"ha":833,"x_min":0,"x_max":0,"o":"m 167 431 l 167 292 l 292 292 l 667 472 l 667 611 l 292 792 l 167 792 l 167 653 l 260 653 l 490 543 l 490 540 l 260 431 z m 167 83 l 667 83 l 667 222 l 167 222 z "},"∞":{"ha":833,"x_min":0,"x_max":0,"o":"m 583 313 l 506 407 l 583 501 b 653 407 624 489 653 451 b 583 313 653 363 624 325 z m 42 407 b 314 172 42 264 167 151 l 417 297 l 519 172 b 792 407 667 151 792 264 b 519 642 792 550 667 663 l 417 517 l 314 642 b 42 407 167 663 42 550 z m 181 407 b 250 501 181 451 210 489 l 328 407 l 250 313 b 181 407 210 325 181 363 z "},"∫":{"ha":833,"x_min":0,"x_max":0,"o":""},"<":{"ha":833,"x_min":0,"x_max":0,"o":"m 618 188 l 544 188 l 350 353 l 350 356 l 544 521 l 618 521 l 618 660 l 493 660 l 215 424 l 215 285 l 493 49 l 618 49 z "},"≤":{"ha":833,"x_min":0,"x_max":0,"o":"m 667 431 l 574 431 l 343 540 l 343 543 l 574 653 l 667 653 l 667 792 l 542 792 l 167 611 l 167 472 l 542 292 l 667 292 z m 167 83 l 667 83 l 667 222 l 167 222 z "},"¬":{"ha":833,"x_min":0,"x_max":0,"o":"m 167 440 l 167 301 l 528 301 l 528 172 l 667 172 l 667 440 z "},"−":{"ha":833,"x_min":0,"x_max":0,"o":"m 167 440 l 167 301 l 667 301 l 667 440 z "},"×":{"ha":833,"x_min":0,"x_max":0,"o":"m 289 599 l 190 501 l 318 374 l 190 246 l 289 147 l 417 275 l 544 147 l 643 246 l 515 374 l 643 501 l 544 599 l 417 471 z "},"≠":{"ha":833,"x_min":0,"x_max":0,"o":"m 464 708 l 418 588 l 167 588 l 167 449 l 367 449 l 319 322 l 167 322 l 167 183 l 267 183 l 219 57 l 368 57 l 415 183 l 667 183 l 667 322 l 468 322 l 515 449 l 667 449 l 667 588 l 567 588 l 613 708 z "},"∂":{"ha":833,"x_min":0,"x_max":0,"o":""},"%":{"ha":833,"x_min":0,"x_max":0,"o":"m 250 0 l 250 172 l 722 750 l 722 972 l 583 972 l 583 800 l 111 222 l 111 0 z m 28 788 b 213 603 28 685 110 603 b 396 788 314 603 396 685 b 213 972 396 890 314 972 b 28 788 110 972 28 890 z m 167 788 b 213 833 167 813 188 833 b 257 788 238 833 257 813 b 213 742 257 763 238 742 b 167 788 188 742 167 763 z m 438 185 b 622 0 438 82 519 0 b 806 185 724 0 806 82 b 622 369 806 288 724 369 b 438 185 519 369 438 288 z m 576 185 b 622 231 576 210 597 231 b 667 185 647 231 667 210 b 622 139 667 160 647 139 b 576 185 597 139 576 160 z "},"‰":{"ha":1667,"x_min":0,"x_max":0,"o":"m 1046 0 b 1229 185 1147 0 1229 82 b 1046 369 1229 288 1147 369 b 861 185 943 369 861 288 b 1046 0 861 82 943 0 z m 28 788 b 213 603 28 685 110 603 b 396 788 314 603 396 685 b 213 972 396 890 314 972 b 28 788 110 972 28 890 z m 111 0 l 250 0 l 250 172 l 722 750 l 722 972 l 583 972 l 583 800 l 111 222 z m 167 788 b 213 833 167 813 188 833 b 257 788 238 833 257 813 b 213 742 257 763 238 742 b 167 788 188 742 167 763 z m 438 185 b 622 0 438 82 519 0 b 806 185 724 0 806 82 b 622 369 806 288 724 369 b 438 185 519 369 438 288 z m 576 185 b 622 231 576 210 597 231 b 667 185 647 231 667 210 b 622 139 667 160 647 139 b 576 185 597 139 576 160 z m 1000 185 b 1046 231 1000 210 1021 231 b 1090 185 1071 231 1090 210 b 1046 139 1090 160 1071 139 b 1000 185 1021 139 1000 160 z "},"+":{"ha":833,"x_min":0,"x_max":0,"o":"m 167 440 l 167 301 l 347 301 l 347 121 l 486 121 l 486 301 l 667 301 l 667 440 l 486 440 l 486 621 l 347 621 l 347 440 z "},"±":{"ha":833,"x_min":0,"x_max":0,"o":"m 167 639 l 167 500 l 347 500 l 347 319 l 486 319 l 486 500 l 667 500 l 667 639 l 486 639 l 486 819 l 347 819 l 347 639 z m 167 111 l 667 111 l 667 250 l 167 250 z "},"∏":{"ha":833,"x_min":0,"x_max":0,"o":""},"√":{"ha":833,"x_min":0,"x_max":0,"o":""},"∑":{"ha":833,"x_min":0,"x_max":0,"o":""},"↑":{"ha":833,"x_min":0,"x_max":0,"o":"m 347 0 l 347 647 l 486 647 l 486 507 l 418 588 l 415 588 l 250 393 l 250 319 l 111 319 l 111 444 l 347 722 l 486 722 l 722 444 l 722 319 l 583 319 l 583 393 l 486 507 l 486 0 z "},"↗":{"ha":833,"x_min":0,"x_max":0,"o":"m 113 154 l 569 613 l 668 514 l 569 415 l 578 519 l 575 522 l 321 501 l 269 449 l 171 547 l 260 636 l 622 665 l 721 567 l 692 204 l 603 115 l 506 214 l 557 265 l 569 415 l 210 57 z "},"→":{"ha":833,"x_min":0,"x_max":0,"o":"m 56 438 l 703 438 l 703 299 l 563 299 l 643 367 l 643 369 l 449 535 l 375 535 l 375 674 l 500 674 l 778 438 l 778 299 l 500 63 l 375 63 l 375 201 l 449 201 l 563 299 l 56 299 z "},"↘":{"ha":833,"x_min":0,"x_max":0,"o":"m 113 571 l 210 668 l 668 211 l 569 113 l 471 211 l 575 203 l 578 206 l 557 460 l 506 511 l 603 610 l 692 521 l 721 158 l 622 60 l 260 89 l 171 178 l 269 276 l 321 224 l 471 211 z "},"↓":{"ha":833,"x_min":0,"x_max":0,"o":"m 347 722 l 486 722 l 486 75 l 347 75 l 347 215 l 415 135 l 418 135 l 583 329 l 583 403 l 722 403 l 722 278 l 486 0 l 347 0 l 111 278 l 111 403 l 250 403 l 250 329 l 347 215 z "},"↙":{"ha":833,"x_min":0,"x_max":0,"o":"m 719 571 l 263 113 l 164 211 l 263 310 l 254 206 l 257 203 l 511 224 l 563 276 l 661 178 l 572 89 l 210 60 l 111 158 l 140 521 l 229 610 l 326 511 l 275 460 l 263 310 l 622 668 z "},"←":{"ha":833,"x_min":0,"x_max":0,"o":"m 778 438 l 778 299 l 131 299 l 131 438 l 271 438 l 190 369 l 190 367 l 385 201 l 458 201 l 458 63 l 333 63 l 56 299 l 56 438 l 333 674 l 458 674 l 458 535 l 385 535 l 271 438 z "},"↖":{"ha":833,"x_min":0,"x_max":0,"o":"m 719 154 l 622 57 l 164 514 l 263 613 l 361 514 l 257 522 l 254 519 l 275 265 l 326 214 l 229 115 l 140 204 l 111 567 l 210 665 l 572 636 l 661 547 l 563 449 l 511 501 l 361 514 z "},"↔":{"ha":833,"x_min":0,"x_max":0,"o":"m 57 449 l 229 449 l 149 381 l 149 378 l 229 310 l 57 310 z m 14 310 l 14 449 l 292 685 l 343 546 l 229 449 l 776 449 l 776 310 l 604 310 l 685 378 l 685 381 l 490 546 l 542 685 l 819 449 l 819 310 l 542 74 l 490 213 l 604 310 l 229 310 l 343 213 l 292 74 z "},"↕":{"ha":833,"x_min":0,"x_max":0,"o":"m 346 43 l 346 215 l 414 135 l 417 135 l 485 215 l 485 43 z m 110 278 l 249 329 l 346 215 l 346 763 l 485 763 l 485 590 l 417 671 l 414 671 l 249 476 l 110 528 l 346 806 l 485 806 l 721 528 l 582 476 l 485 590 l 485 215 l 582 329 l 721 278 l 485 0 l 346 0 z "},"◊":{"ha":833,"x_min":0,"x_max":0,"o":"m 583 428 l 583 281 l 418 86 l 415 86 l 250 281 l 250 428 l 415 622 l 418 622 z m 111 229 l 347 -49 l 486 -49 l 722 229 l 722 479 l 486 757 l 347 757 l 111 479 z "},"|":{"ha":833,"x_min":0,"x_max":0,"o":"m 486 1111 l 347 1111 l 347 -139 l 486 -139 z "},"¦":{"ha":833,"x_min":0,"x_max":0,"o":"m 486 288 l 347 288 l 347 -139 l 486 -139 z m 347 685 l 486 685 l 486 1111 l 347 1111 z "},"@":{"ha":833,"x_min":0,"x_max":0,"o":"m 625 722 l 625 629 l 551 679 l 508 679 b 258 429 371 679 258 568 l 258 304 b 508 54 258 167 371 54 l 551 54 l 625 104 l 625 54 l 764 54 l 764 722 b 514 972 764 861 653 972 l 319 972 b 69 722 182 972 69 861 l 69 11 b 319 -240 69 -126 182 -240 l 582 -240 l 582 -100 l 319 -100 b 208 11 258 -100 208 -50 l 208 722 b 319 833 208 783 257 833 l 514 833 b 625 722 576 833 625 785 z m 397 304 l 397 429 b 508 540 397 490 447 540 l 625 463 l 625 271 l 508 193 b 397 304 447 193 397 243 z "},"&":{"ha":833,"x_min":0,"x_max":0,"o":"m 619 417 b 597 306 619 378 611 339 b 442 486 546 367 490 428 l 644 676 b 407 972 658 846 556 972 b 168 708 268 972 168 861 b 256 500 168 644 204 574 l 75 331 b 361 0 75 132 176 0 b 593 79 447 0 528 29 b 619 0 610 49 619 22 l 758 0 b 689 182 758 56 731 118 b 758 417 733 250 758 331 l 758 431 l 619 431 z m 214 271 l 340 390 b 511 192 397 321 460 253 b 361 139 468 158 417 139 b 214 271 274 139 222 185 z m 307 708 b 407 833 307 786 347 833 b 506 736 460 833 496 797 l 356 594 b 307 708 326 639 307 678 z "},"¶":{"ha":833,"x_min":0,"x_max":0,"o":"m 83 722 l 83 639 b 333 389 83 500 194 389 l 403 389 l 403 0 l 542 0 l 542 972 l 333 972 b 83 722 194 972 83 861 z m 611 0 l 750 0 l 750 972 l 611 972 z "},"©":{"ha":833,"x_min":0,"x_max":0,"o":"m 479 390 b 417 318 479 347 453 318 b 354 390 381 318 354 347 l 354 463 b 417 535 354 506 381 535 b 479 463 453 535 479 506 l 479 461 l 576 461 l 576 463 b 417 632 576 558 507 632 b 257 463 325 632 257 558 l 257 390 b 417 221 257 294 325 221 b 576 390 507 221 576 294 l 576 392 l 479 392 z m 83 310 b 417 0 83 131 218 0 b 749 310 614 0 749 131 l 749 542 b 417 851 749 721 614 851 b 83 542 219 851 83 721 z m 181 310 l 181 542 b 417 754 181 664 269 754 b 651 542 564 754 651 664 l 651 310 b 417 97 651 188 564 97 b 181 310 268 97 181 188 z "},"®":{"ha":833,"x_min":0,"x_max":0,"o":"m 290 790 l 290 469 l 388 469 l 388 524 l 413 524 l 446 469 l 560 469 l 510 550 b 564 657 543 575 564 614 b 429 790 564 732 504 790 z m 53 622 b 417 258 53 421 215 258 b 781 622 618 258 781 421 b 417 986 781 824 618 986 b 53 622 215 986 53 824 z m 150 622 b 417 889 150 769 268 889 b 683 622 564 889 683 769 b 417 356 683 475 564 356 b 150 622 268 356 150 475 z m 388 621 l 388 693 l 429 693 b 467 657 450 693 467 678 b 429 621 467 638 450 621 z "},"§":{"ha":833,"x_min":0,"x_max":0,"o":""},"™":{"ha":1667,"x_min":0,"x_max":0,"o":"m 111 972 l 111 875 l 264 875 l 264 500 l 361 500 l 361 875 l 514 875 l 514 972 z m 583 500 l 681 500 l 681 801 l 782 597 l 857 597 l 958 801 l 958 500 l 1056 500 l 1056 972 l 944 972 l 819 718 l 694 972 l 583 972 z "},"°":{"ha":833,"x_min":0,"x_max":0,"o":"m 417 617 b 600 801 518 617 600 699 b 417 986 600 904 518 986 b 232 801 314 986 232 904 b 417 617 232 699 314 617 z m 371 801 b 417 847 371 826 392 847 b 461 801 442 847 461 826 b 417 756 461 776 442 756 b 371 801 392 756 371 776 z "},"^":{"ha":833,"x_min":0,"x_max":0,"o":"m 528 486 l 667 486 l 667 611 l 486 986 l 347 986 l 167 611 l 167 486 l 306 486 l 306 579 l 415 810 l 418 810 l 528 579 z "},"†":{"ha":833,"x_min":0,"x_max":0,"o":"m 139 806 l 139 667 l 347 667 l 347 250 l 486 250 l 486 667 l 694 667 l 694 806 l 486 806 l 486 972 l 347 972 l 347 806 z "},"‡":{"ha":833,"x_min":0,"x_max":0,"o":"m 139 556 l 139 417 l 347 417 l 347 250 l 486 250 l 486 417 l 694 417 l 694 556 l 486 556 l 486 667 l 694 667 l 694 806 l 486 806 l 486 972 l 347 972 l 347 806 l 139 806 l 139 667 l 347 667 l 347 556 z "},"̈":{"ha":0,"x_min":0,"x_max":0,"o":"m 215 972 l 215 833 l 368 833 l 368 972 z m 465 833 l 618 833 l 618 972 l 465 972 z "},"̇":{"ha":0,"x_min":0,"x_max":0,"o":"m 340 972 l 340 833 l 493 833 l 493 972 z "},"̀":{"ha":0,"x_min":0,"x_max":0,"o":"m 310 1044 l 121 1044 l 343 833 l 504 833 z "},"́":{"ha":0,"x_min":0,"x_max":0,"o":"m 524 1044 l 329 833 l 490 833 l 713 1044 z "},"̋":{"ha":0,"x_min":0,"x_max":0,"o":"m 621 1044 l 426 833 l 588 833 l 810 1044 z m 149 833 l 310 833 l 532 1044 l 343 1044 z "},"̂":{"ha":0,"x_min":0,"x_max":0,"o":"m 490 1044 l 343 1044 l 163 833 l 324 833 l 417 929 l 510 833 l 671 833 z "},"̌":{"ha":0,"x_min":0,"x_max":0,"o":"m 490 833 l 671 1044 l 510 1044 l 417 949 l 324 1044 l 163 1044 l 343 833 z "},"̆":{"ha":0,"x_min":0,"x_max":0,"o":"m 490 1047 b 417 972 490 1006 457 972 b 342 1047 375 972 342 1006 l 342 1049 l 203 1049 l 203 1047 b 417 833 203 929 299 833 b 629 1047 533 833 629 929 l 629 1049 l 490 1049 z "},"̊":{"ha":0,"x_min":0,"x_max":0,"o":"m 418 833 b 593 1008 514 833 593 913 b 418 1183 593 1106 514 1183 b 242 1008 319 1183 242 1106 b 418 833 242 911 319 833 z m 381 1008 b 418 1044 381 1029 396 1044 b 454 1008 438 1044 454 1029 b 418 972 454 989 438 972 b 381 1008 396 972 381 989 z "},"̃":{"ha":0,"x_min":0,"x_max":0,"o":"m 139 860 l 269 815 b 326 861 282 849 292 860 l 478 797 b 694 938 592 793 660 838 l 564 982 b 507 936 551 949 542 938 l 356 1000 b 139 860 242 1004 174 960 z "},"̄":{"ha":0,"x_min":0,"x_max":0,"o":"m 167 972 l 167 833 l 667 833 l 667 972 z "},"̒":{"ha":0,"x_min":0,"x_max":0,"o":"m 497 1125 l 353 935 l 319 833 l 458 833 l 558 1125 z "},"̦":{"ha":0,"x_min":0,"x_max":0,"o":"m 307 -431 l 451 -240 l 485 -139 l 346 -139 l 246 -431 z "},"̧":{"ha":0,"x_min":0,"x_max":0,"o":"m 350 0 l 331 -60 l 390 -172 l 496 -172 b 532 -212 515 -172 532 -190 b 496 -250 532 -232 514 -250 l 338 -250 l 338 -389 l 496 -389 b 671 -212 592 -389 671 -308 b 496 -33 671 -114 592 -33 l 483 -33 l 489 0 l 489 46 l 350 46 z "},"̨":{"ha":0,"x_min":0,"x_max":0,"o":"m 564 -153 b 547 25 501 -153 393 -132 l 408 25 b 475 -292 254 -82 297 -292 l 564 -292 z "},"̵":{"ha":0,"x_min":0,"x_max":0,"o":"m 167 440 l 167 301 l 667 301 l 667 440 z "},"̶":{"ha":0,"x_min":0,"x_max":0,"o":"m 14 440 l 819 440 l 819 301 l 14 301 z "},"̷":{"ha":0,"x_min":0,"x_max":0,"o":"m 525 840 l 161 -132 l 310 -132 l 674 840 z "},"̸":{"ha":0,"x_min":0,"x_max":0,"o":"m 579 1118 l 106 -146 l 254 -146 l 728 1118 z "},"´":{"ha":833,"x_min":0,"x_max":0,"o":"m 524 1044 l 329 833 l 490 833 l 713 1044 z "},"˘":{"ha":833,"x_min":0,"x_max":0,"o":"m 490 1047 b 417 972 490 1006 457 972 b 342 1047 375 972 342 1006 l 342 1049 l 203 1049 l 203 1047 b 417 833 203 929 299 833 b 629 1047 533 833 629 929 l 629 1049 l 490 1049 z "},"ˇ":{"ha":833,"x_min":0,"x_max":0,"o":"m 490 833 l 671 1044 l 510 1044 l 417 949 l 324 1044 l 163 1044 l 343 833 z "},"¸":{"ha":833,"x_min":0,"x_max":0,"o":"m 350 0 l 331 -60 l 390 -172 l 496 -172 b 532 -212 515 -172 532 -190 b 496 -250 532 -232 514 -250 l 338 -250 l 338 -389 l 496 -389 b 671 -212 592 -389 671 -308 b 496 -33 671 -114 592 -33 l 483 -33 l 489 0 l 489 46 l 350 46 z "},"ˆ":{"ha":833,"x_min":0,"x_max":0,"o":"m 490 1044 l 343 1044 l 163 833 l 324 833 l 417 929 l 510 833 l 671 833 z "},"¨":{"ha":833,"x_min":0,"x_max":0,"o":"m 215 972 l 215 833 l 368 833 l 368 972 z m 465 833 l 618 833 l 618 972 l 465 972 z "},"˙":{"ha":833,"x_min":0,"x_max":0,"o":"m 340 972 l 340 833 l 493 833 l 493 972 z "},"`":{"ha":833,"x_min":0,"x_max":0,"o":"m 310 1044 l 121 1044 l 343 833 l 504 833 z "},"˝":{"ha":833,"x_min":0,"x_max":0,"o":"m 663 1044 l 468 833 l 629 833 l 851 1044 z m 190 833 l 351 833 l 574 1044 l 385 1044 z "},"¯":{"ha":833,"x_min":0,"x_max":0,"o":"m 167 972 l 167 833 l 667 833 l 667 972 z "},"˛":{"ha":833,"x_min":0,"x_max":0,"o":"m 564 -153 b 547 25 501 -153 393 -132 l 408 25 b 475 -292 254 -82 297 -292 l 564 -292 z "},"˚":{"ha":833,"x_min":0,"x_max":0,"o":"m 418 833 b 593 1008 514 833 593 913 b 418 1183 593 1106 514 1183 b 242 1008 319 1183 242 1106 b 418 833 242 911 319 833 z m 381 1008 b 418 1044 381 1029 396 1044 b 454 1008 438 1044 454 1029 b 418 972 454 989 438 972 b 381 1008 396 972 381 989 z "},"˜":{"ha":833,"x_min":0,"x_max":0,"o":"m 139 860 l 269 815 b 326 861 282 849 292 860 l 478 797 b 694 938 592 793 660 838 l 564 982 b 507 936 551 949 542 938 l 356 1000 b 139 860 242 1004 174 960 z "}}}
